<svg xmlns="http://www.w3.org/2000/svg" xmlns:xlink="http://www.w3.org/1999/xlink" fill="none" version="1.1" width="12" height="12" viewBox="0 0 12 12"><path d="M8.8590069,2.55C9.1903772,2.55,9.4590054,2.8186293,9.4590054,3.1499999L9.4590054,10.658998C9.4590054,10.990369,9.1903772,11.258999,8.8590069,11.258999L1.3410265,11.258999C1.0096565,11.258999,0.74102813,10.990369,0.74102813,10.658998L0.74102813,3.1409996C0.74102813,2.8096287,1.0096564,2.5409999,1.3410265,2.5409999L8.8590069,2.5409999M8.8590069,1.7909998L1.3410265,1.7909998C0.5968855,1.790983,-0.0049642883,2.3968737,0.000029999926,3.1409996L0.000029999926,10.658998C0.000030029538,11.399613,0.60041463,12,1.3410265,12L8.8590069,12C9.5996199,12,10.200005,11.399613,10.200005,10.658998L10.200005,3.1409996C10.200005,2.4003861,9.5996199,1.7999998,8.8590069,1.7999998L8.8590069,1.7909998ZM10.200005,5.4509993C8.5995712,4.4456472,6.4925208,4.8657413,5.4000163,6.407999C4.9745836,7.0080662,4.3261156,7.4122787,3.6000214,7.5299988C2.184489,7.8313546,0.79364198,6.9247451,0.4980289,5.5079999C0.45861435,5.3064256,0.26545319,5.1732111,0.063030005,5.2079997C0.039030068,5.2079997,0.021030113,5.2259998,0.000030169411,5.2319999L0.000030169411,6.4049997C0.67295468,7.7961683,2.1958234,8.5625248,3.7140207,8.2739992C4.6387296,8.1211281,5.4628038,7.6020255,6.0000153,6.8339992C6.4251156,6.2303553,7.0725865,5.8202891,7.8000107,5.6939993C8.6674109,5.5284047,9.5613689,5.7921238,10.200005,6.401999L10.200005,5.4509993ZM2.7000229,4.1490002C2.2858105,4.1490002,1.9500251,4.484786,1.9500251,4.8990002C1.9500251,5.3132124,2.2858105,5.6490002,2.7000229,5.6490002C3.1142359,5.6490002,3.4500213,5.3132124,3.4500213,4.8990002C3.4500213,4.484786,3.1142359,4.1490002,2.7000229,4.1490002ZM10.659002,0L3.141022,0C2.4573567,0.0024859088,1.8855338,0.51997417,1.8150253,1.1999999L2.5740235,1.1999999C2.6410661,0.94004333,2.872633,0.75625962,3.141022,0.75L10.659002,0.75C10.990373,0.75,11.259003,1.0186292,11.259001,1.35L11.259001,8.8589983C11.251659,9.1299887,11.063522,9.3623943,10.800003,9.4259996L10.800003,10.2C11.480028,10.129492,11.997515,9.5576668,11.999999,8.8739996L11.999999,1.341C11.999999,0.60038602,11.399614,0,10.659002,0Z" fill="#FFFFFF" fill-opacity="1" style="mix-blend-mode:passthrough"/></svg>