<svg xmlns="http://www.w3.org/2000/svg" xmlns:xlink="http://www.w3.org/1999/xlink" fill="none" version="1.1" width="96" height="96" viewBox="0 0 96 96"><path d="M188.170197,44.170208L147.829781,44.170208L147.829781,3.8297868C147.829781,1.7872337,146.042549,0,143.999996,0C141.957439,0,140.170208,1.7872337,140.170208,3.8297868L140.170208,44.170212L99.8297868,44.170212C97.7872337,44.170212,96,45.957447,96,48C96,50.042553,97.7872337,51.829788,99.8297868,51.829788L140.170212,51.829788L140.170212,92.170212C140.170212,94.212761,141.957447,96,144,96C146.042553,96,147.829788,94.212753,147.829788,92.170212L147.829788,51.829781L188.170212,51.829781C190.212761,51.829781,192,50.042549,192,47.999996C192,45.957439,190.21275300000002,44.170208,188.170197,44.170208Z" fill="#CCCCCC" fill-opacity="1" style="mix-blend-mode:passthrough" transform="matrix(-1,0,0,1,192,0)"/></svg>