<svg xmlns="http://www.w3.org/2000/svg" xmlns:xlink="http://www.w3.org/1999/xlink" fill="none" version="1.1" width="13.399999976158142" height="6.899999976158142" viewBox="0 0 13.399999976158142 6.899999976158142"><g transform="matrix(0,1,-1,0,13.399999976158142,-12)"><path d="M12.18409532807907,1.172912688079071Q12.095356228079071,1.076106368079071,12.047748148079071,0.953715388079071Q12.000140008079072,0.8313243680790711,12.00013994807907,0.699999988079071Q12.000140008079072,0.631069794079071,12.013587598079072,0.5634640780790711Q12.02703523807907,0.4958583580790711,12.053413688079072,0.43217515807907103Q12.079792078079072,0.36849194807907104,12.118087708079072,0.31117859807907106Q12.156383218079071,0.253865238079071,12.205124228079072,0.20512422807907105Q12.25386523807907,0.15638321807907107,12.311178628079071,0.11808764807907102Q12.368491948079072,0.07979207807907107,12.43217515807907,0.0534136880790711Q12.49585835807907,0.027035238079071044,12.563464078079072,0.013587598079071062Q12.631069794079071,0.00014000807907099677,12.699999988079071,0.00013994807907102835Q12.84713138807907,0.00014000807907099677,12.981807828079072,0.05938440807907108Q13.116484288079072,0.11862879807907101,13.215904648079071,0.22708728807907103L13.216007828079071,0.22699272807907106L18.46824238807907,5.956702888079071Q18.757372588079072,6.272117788079071,18.757372588079072,6.699999488079071Q18.757372588079072,7.127881688079071,18.46824238807907,7.443296588079071L15.96600768807907,10.17300718807907L13.216007828079071,13.17300598807907L13.215905008079071,13.172911988079072Q13.116484698079072,13.281368988079072,12.981808128079072,13.340614988079071Q12.84713153807907,13.39985998807907,12.699999988079071,13.39985998807907Q12.631069794079071,13.39985998807907,12.563464078079072,13.38641098807907Q12.49585835807907,13.37296298807907,12.43217515807907,13.346584988079071Q12.368491948079072,13.320206988079072,12.31117859807907,13.281910988079071Q12.25386523807907,13.243614988079072,12.205124228079072,13.194874988079071Q12.156383218079071,13.146133988079072,12.11808764807907,13.088820988079071Q12.079792078079072,13.031506988079071,12.053413688079072,12.967822988079071Q12.02703523807907,12.904139988079072,12.013587598079072,12.836534988079071Q12.000140008079072,12.768929988079071,12.00013994807907,12.699999988079071Q12.00013994807907,12.568675988079072,12.047748148079071,12.44628398807907Q12.09535628807907,12.323893988079071,12.184095438079071,12.227086988079071L12.18399214807907,12.22699298807907L14.933992088079071,9.226992788079071L17.25040258807907,6.699999988079071L12.18399214807907,1.173007248079071L12.18409532807907,1.172912688079071Z" fill-rule="evenodd" fill="#72B6FF" fill-opacity="1"/></g></svg>