<svg xmlns="http://www.w3.org/2000/svg" xmlns:xlink="http://www.w3.org/1999/xlink" fill="none" version="1.1" width="6" height="11" viewBox="0 0 6 11"><path d="M0.14651731,0.85348269Q0.07620522000000002,0.78317061,0.038152640000000015,0.69130346Q0.00009998999999999425,0.599436291,0.00009998999999999425,0.5Q0.00010001999999997846,0.450764146,0.009705450000000004,0.402474351Q0.019310890000000025,0.35418455,0.038152640000000015,0.30869657Q0.05699438000000001,0.26320857,0.08434835000000002,0.22227046Q0.11170232000000002,0.18133234999999998,0.14651734,0.14651734Q0.18133234999999998,0.11170232000000002,0.22227046,0.08434838Q0.26320857,0.056994409999999995,0.30869657,0.038152660000000005Q0.35418455,0.019310890000000025,0.402474351,0.009705450000000004Q0.450764146,0.00010001999999997846,0.5,0.00009998999999999425Q0.599436291,0.00009998999999999425,0.69130346,0.038152640000000015Q0.78317061,0.07620522000000002,0.85348269,0.14651731L0.8535533799999999,0.14644662000000003L5.5707107,4.8636041Q5.8343148,5.1272082,5.8343148,5.5Q5.8343148,5.8727913,5.5707111,6.1363959L3.3535535,8.3535538L0.8535533799999999,10.853554L0.8534824599999999,10.853483Q0.7831703999999999,10.923795,0.6913033,10.961847Q0.599436209,10.9999,0.5,10.9999Q0.450764146,10.999899,0.402474351,10.990294Q0.35418455,10.980688,0.30869657,10.961845Q0.26320857,10.943005,0.22227046,10.915651Q0.18133234999999998,10.888297,0.14651734,10.853482Q0.11170232000000002,10.818666,0.08434838,10.777728Q0.056994409999999995,10.73679,0.038152660000000005,10.691302Q0.019310890000000025,10.645815,0.009705450000000004,10.597525Q0.00010001999999997846,10.549236,0.00009998999999999425,10.5Q0.00009998999999999425,10.4005642,0.03815255000000001,10.3086967Q0.07620506999999999,10.2168293,0.14651707000000003,10.1465178L0.14644662000000003,10.1464472L4.7928934,5.5000005L0.14644662000000003,0.8535533799999999L0.14651731,0.85348269Z" fill-rule="evenodd" fill="#666666" fill-opacity="1"/></svg>