<svg xmlns="http://www.w3.org/2000/svg" xmlns:xlink="http://www.w3.org/1999/xlink" fill="none" version="1.1" width="22" height="24" viewBox="0 0 22 24"><rect x="0" y="0" width="22" height="24" rx="0" fill="#D8D8D8" fill-opacity="0"/><path d="M9.628572,2.36912754C10.4800005,1.87695756,11.5199976,1.87695756,12.371428,2.36912754L18.576399,5.9556000000000004C19.455854,6.4639878,20,7.4195695,20,8.455610799999999L20,15.544392C19.999985,16.580457,19.455839,17.536037999999998,18.576399,18.044401L12.371428,21.630875C11.5199976,22.123045,10.4800005,22.123045,9.628572,21.630875L3.4236025999999997,18.044401C2.54414529,17.536012,2,16.580432000000002,2,15.544392L2,8.455610799999999C2.000013647613,7.4195452,2.54415953,6.4639626,3.4236028999999997,5.9555998L9.628572,2.36912754ZM11.4574528,4.0370764999999995C11.1734819,3.8727809,10.8265152,3.8727809,10.5425453,4.0370764999999995L4.338509999999999,7.6225924C4.0452197000000005,7.7918262,3.8635976000000003,8.1102362,3.8633546,8.455610799999999L3.8633546,15.544392C3.8635976000000003,15.889765,4.0452197000000005,16.208175,4.338509999999999,16.377411000000002L10.543479,19.963882C10.8274498,20.128181,11.1744165,20.128181,11.4583864,19.963882L17.663355,16.377411000000002C17.956646,16.208175,18.138266,15.889765,18.13851,15.544392L18.13851,8.455610799999999C18.138266,8.1102362,17.956646,7.7918267,17.663355,7.6225929L11.4574528,4.0370764999999995ZM11,8.1744304C13.058205,8.1744304,14.726707,9.887197,14.726707,12.000001C14.726707,14.112806,13.058205,15.825572,11,15.825572C8.941796799999999,15.825572,7.2732921,14.112806,7.2732921,12.000001C7.2732921,9.887197,8.941796799999999,8.1744304,11,8.1744304ZM11,10.0872154C9.970395100000001,10.0864868,9.135359300000001,10.9430828,9.135359300000001,12.000001C9.135359300000001,13.056919,9.970397,13.913516,11,13.912786C12.028601,13.912057,12.862066,13.055888,12.862066,12.000001C12.862066,10.9441137,12.028601,10.0879459,11,10.0872154Z" fill="#333333" fill-opacity="1" style="mix-blend-mode:passthrough"/></svg>