<svg xmlns="http://www.w3.org/2000/svg" xmlns:xlink="http://www.w3.org/1999/xlink" fill="none" version="1.1" width="16" height="16" viewBox="0 0 16 16"><rect x="0" y="0" width="14" height="14" rx="0" fill="#D8D8D8" fill-opacity="0"/><path d="M11.4225779,3.4937438L10.1326008,2.26212877C9.9771571,2.12261046,9.8950491,2.02790235,9.682787399999999,2.0074125058C9.4639392,1.975614922,9.1245947,2.047883891,8.9610357,2.19030686L8.8252125,2.31932053C6.2027702,4.8064909,4.391091299999999,6.5308847,3.725207,7.1739578C3.4714445,7.4144087,3.2925335000000002,7.7173667,3.2083807,8.0491223L2.75493848,9.810757599999999C2.6858445399999997,10.0857067,2.76949006,10.3752642,2.9764355399999998,10.5775242L2.9813112,10.5828466C3.135633,10.7377396,3.348127,10.8276939,3.5719699,10.8328905C3.6509924,10.8330774,3.7294562,10.8202524,3.8039149,10.7949829C3.8150592000000003,10.7909937,4.934385300000001,10.3866634,5.6734051999999995,10.1299658C6.00144,10.0067329,6.3001451,9.8217316,6.5517316,9.585982300000001L11.4232731,4.9348378C11.8401852,4.5382309,11.8401852,3.8936741,11.4232731,3.4970670999999998L11.4225779,3.4937438ZM5.3244438,9.466944699999999C4.663435,9.7149954,3.7224208,10.0448446,3.5670942,10.098712C3.5405856,10.0911846,3.5165828,10.0772038,3.4974413,10.0581455C3.4722429999999997,10.0382013,3.4564428,10.00947,3.4535595,9.978344L3.9285945,8.1741467L3.8181819,8.1741753C3.8181819,8.1642017,3.9258077,8.184123,3.9285945,8.1741467L4.7272727,8.851769L5.3244438,9.466944699999999ZM11.5611877,12L2.4390035,11.9999895C2.19665253,11.9999895,2,11.812376,2,11.5809898C2,11.3496017,2.19665253,11.1620913,2.4390035,11.1620913L11.5611877,11.162076C11.8035383,11.162076,12.000001,11.3496494,12.000001,11.5810375C12.000001,11.8124218,11.8035383,12,11.5611877,12Z" fill="#FFFFFF" fill-opacity="1" style="mix-blend-mode:passthrough"/></svg>