<svg xmlns="http://www.w3.org/2000/svg" xmlns:xlink="http://www.w3.org/1999/xlink" fill="none" version="1.1" width="56" height="56" viewBox="0 0 56 56"><defs><filter id="master_svg0_81_3694" filterUnits="objectBoundingBox" color-interpolation-filters="sRGB" x="-1.4285714285714286" y="-1.1428571428571428" width="3.857142857142857" height="3.857142857142857"><feFlood flood-opacity="0" result="BackgroundImageFix"/><feColorMatrix in="SourceAlpha" type="matrix" values="0 0 0 0 0 0 0 0 0 0 0 0 0 0 0 0 0 0 127 0"/><feOffset dy="4" dx="0"/><feGaussianBlur stdDeviation="5"/><feColorMatrix type="matrix" values="0 0 0 0 0 0 0 0 0 0 0 0 0 0 0 0 0 0 0.5 0"/><feBlend mode="normal" in2="BackgroundImageFix" result="effect1_dropShadow"/><feBlend mode="normal" in="SourceGraphic" in2="effect1_dropShadow" result="shape"/></filter></defs><g filter="url(#master_svg0_81_3694)"><path d="M28.706965,17.70696574Q28.847589499999998,17.56634152,28.9236946,17.38260713Q28.9997997,17.19887272,28.9998002,17Q28.9997997,16.901528291,28.9805889,16.8049487Q28.9613776,16.70836911,28.9236937,16.61739314Q28.8860102,16.52641714,28.8313026,16.44454092Q28.7765951,16.3626647,28.706965,16.29303467Q28.637334799999998,16.22340465,28.5554585,16.16869676Q28.4735823,16.11398882,28.382606,16.07630533Q28.2916298,16.03862178,28.1950507,16.01941091Q28.0984712,16.00020003,28,16.00019997Q27.801127,16.00020003,27.6173921,16.07630533Q27.4336576,16.15241069,27.2930341,16.29303497L27.2928925,16.29289329L19.6114907,23.9742951L26.7672067,31.68045L26.7673531,31.680315Q26.909233999999998,31.833109,27.1003618,31.916454Q27.2914896,31.9998,27.5,31.9998Q27.5984716,31.999799,27.6950502,31.980587Q27.7916298,31.961376,27.882605599999998,31.923693Q27.973581799999998,31.886009,28.0554585,31.831302Q28.137334799999998,31.776594,28.206965,31.706964Q28.2765946,31.637334,28.3313026,31.555458Q28.3860102,31.473581,28.4236941,31.382604999999998Q28.4613781,31.291629999999998,28.4805889,31.195050000000002Q28.4997997,31.098471,28.4998002,31Q28.4998007,30.810729000000002,28.4306183,30.634556Q28.3614364,30.458381,28.232646,30.319684000000002L28.2327933,30.319547999999998L23.2932129,25L34.999999,25L34.999999,24.9998002Q35.098471,24.9997997,35.195049,24.9805889Q35.291629,24.9613776,35.382605,24.9236937Q35.473580999999996,24.8860102,35.555457000000004,24.8313026Q35.637333999999996,24.7765951,35.706964,24.706965Q35.776594,24.637334799999998,35.831300999999996,24.5554585Q35.886009,24.4735823,35.923693,24.382606Q35.961376,24.2916298,35.980588,24.1950507Q35.999798999999996,24.0984712,35.9998,24Q35.999798999999996,23.9015274,35.980587,23.804947900000002Q35.961376,23.7083683,35.923693,23.6173921Q35.886009,23.5264158,35.831302,23.44454Q35.776594,23.3626637,35.706964,23.2930341Q35.637333999999996,23.2234039,35.555458,23.1686959Q35.473580999999996,23.113987899999998,35.382605,23.0763049Q35.29163,23.0386214,35.19505,23.0194106Q35.098471,23.0001998,35,23.0001998L34.999999,22.9999995L23.4142132,22.9999995L28.7071061,17.70710671L28.706965,17.70696574Z" fill-rule="evenodd" fill="#FFFFFF" fill-opacity="1"/></g></svg>