<svg xmlns="http://www.w3.org/2000/svg" xmlns:xlink="http://www.w3.org/1999/xlink" fill="none" version="1.1" width="14" height="14" viewBox="0 0 14 14"><ellipse cx="7" cy="7" rx="7" ry="7" fill="#FBFBFD" fill-opacity="1"/><g><path d="M7,13Q7.1472917,13,7.2944064,12.992772Q7.4415207,12.985545,7.5881033,12.971108Q7.7346859,12.956671,7.8803825,12.935059Q8.0260801,12.913446,8.170541799999999,12.88471Q8.3150034,12.855975,8.4578815,12.820187Q8.600758599999999,12.784397,8.741708299999999,12.741642Q8.8826571,12.698885,9.0213385,12.649263Q9.1600199,12.599642,9.2960997,12.543276Q9.4321795,12.48691,9.5653305,12.423935Q9.6984806,12.36096,9.8283806,12.291527Q9.9582806,12.222094,10.0846167,12.14637Q10.2109528,12.070647,10.3334208,11.988816Q10.4558897,11.906985,10.5741949,11.819244Q10.6925011,11.731503,10.8063593,11.638062Q10.9202166,11.544622,11.029352,11.445707Q11.138489,11.346792,11.24264,11.24264Q11.34679,11.13849,11.445706,11.029354Q11.544621,10.9202185,11.638062,10.8063612Q11.731503,10.692503,11.819243,10.5741968Q11.906985,10.4558907,11.988816,10.3334217Q12.070647,10.2109528,12.146371,10.0846167Q12.222094,9.9582806,12.291527,9.8283815Q12.36096,9.6984806,12.423935,9.5653305Q12.48691,9.4321804,12.543276,9.2961006Q12.599642,9.1600208,12.649263,9.0213394Q12.698885,8.8826575,12.741642,8.7417088Q12.784397,8.600759,12.820187,8.457881Q12.855975,8.3150034,12.88471,8.170541799999999Q12.913446,8.0260801,12.935058,7.880383Q12.956671,7.7346859,12.971108,7.5881033Q12.985545,7.4415207,12.992773,7.2944059Q13,7.1472917,13,7Q13,6.8527079,12.992772,6.7055931Q12.985545,6.5584793,12.971108,6.4118967Q12.956671,6.2653141,12.935059,6.1196165Q12.913446,5.9739189,12.88471,5.8294573Q12.855975,5.6849957,12.820187,5.5421181Q12.784397,5.399241,12.741642,5.2582917Q12.698885,5.117342,12.649263,4.9786605999999995Q12.599642,4.8399789,12.543276,4.7038991Q12.48691,4.5678196,12.423935,4.4346692999999995Q12.36096,4.3015191999999995,12.291527,4.1716194Q12.222094,4.0417197,12.14637,3.9153833Q12.070647,3.789047,11.988816,3.6665783Q11.906985,3.5441098,11.819244,3.4258039Q11.731503,3.307498,11.638062,3.1936402Q11.544622,3.079782,11.445707,2.9706460999999997Q11.346792,2.8615103,11.24264,2.7573593Q11.13849,2.6532083,11.029354,2.5542933000000003Q10.9202185,2.4553782,10.8063612,2.3619373Q10.692503,2.2684963,10.5741968,2.1807548Q10.4558907,2.093013,10.3334217,2.0111822Q10.2109528,1.92935133,10.0846167,1.85362822Q9.9582806,1.77790523,9.8283815,1.70847237Q9.6984806,1.6390395199999999,9.5653305,1.57606423Q9.4321804,1.51308888,9.2961006,1.45672277Q9.1600208,1.40035665,9.0213394,1.3507356Q8.8826575,1.3011145,8.7417088,1.25835797Q8.600759,1.21560144,8.457881,1.17981246Q8.3150034,1.14402349,8.170541799999999,1.1152883Q8.0260801,1.086553112,7.880383,1.064940937Q7.7346859,1.043328751,7.5881033,1.028891638Q7.4415207,1.014454524,7.2944059,1.007227262Q7.1472917,1,7,1Q6.8527079,1,6.7055931,1.007227262Q6.5584793,1.014454524,6.4118967,1.028891638Q6.2653141,1.043328751,6.1196165,1.064940929Q5.9739189,1.086553112,5.8294573,1.1152883Q5.6849957,1.14402349,5.5421181,1.17981246Q5.399241,1.21560144,5.2582917,1.25835797Q5.117342,1.3011145,4.9786605999999995,1.3507355699999999Q4.8399789,1.40035665,4.7038991,1.45672277Q4.5678196,1.51308888,4.4346692999999995,1.57606423Q4.3015191999999995,1.63903958,4.1716194,1.70847243Q4.0417197,1.77790529,3.9153833,1.8536283999999998Q3.789047,1.92935145,3.6665783,2.0111822999999998Q3.5441098,2.0930133,3.4258039,2.1807548Q3.307498,2.2684964,3.1936402,2.3619373Q3.079782,2.4553782,2.9706460999999997,2.5542932Q2.8615103,2.6532083,2.7573593,2.7573593Q2.6532083,2.8615103,2.5542933000000003,2.9706460999999997Q2.4553782,3.079782,2.3619373,3.1936402Q2.2684963,3.307498,2.1807548,3.4258039Q2.093013,3.5441098,2.0111822,3.6665783Q1.92935133,3.789047,1.85362822,3.9153833Q1.77790523,4.0417199,1.70847237,4.1716199Q1.6390395199999999,4.3015194,1.57606423,4.4346695Q1.51308888,4.5678196,1.45672277,4.7038991Q1.40035665,4.8399789,1.3507356,4.9786605999999995Q1.3011145,5.117342,1.25835797,5.2582917Q1.21560144,5.399241,1.17981246,5.5421185Q1.14402349,5.6849961,1.1152883,5.8294578Q1.086553112,5.9739189,1.064940937,6.1196165Q1.043328751,6.2653141,1.028891638,6.4118967Q1.014454524,6.5584793,1.007227262,6.7055931Q1,6.8527079,1,7Q1,7.1472917,1.007227262,7.2944064Q1.014454524,7.4415207,1.028891638,7.5881033Q1.043328751,7.7346859,1.064940929,7.8803825Q1.086553112,8.0260801,1.1152883,8.170541799999999Q1.14402349,8.3150034,1.17981246,8.4578815Q1.21560144,8.600758599999999,1.25835797,8.741708299999999Q1.3011145,8.8826571,1.3507355699999999,9.0213385Q1.40035665,9.1600199,1.45672277,9.2960997Q1.51308888,9.4321795,1.57606423,9.5653305Q1.63903958,9.6984806,1.70847243,9.8283806Q1.77790529,9.9582806,1.8536283999999998,10.0846167Q1.92935145,10.2109528,2.0111822999999998,10.3334208Q2.0930133,10.4558897,2.1807548,10.5741949Q2.2684964,10.6925011,2.3619373,10.8063593Q2.4553782,10.9202166,2.5542932,11.029352Q2.6532083,11.138489,2.7573593,11.24264Q2.8615103,11.34679,2.9706460999999997,11.445706Q3.079782,11.544621,3.1936402,11.638062Q3.307498,11.731503,3.4258039,11.819243Q3.5441098,11.906985,3.6665783,11.988816Q3.789047,12.070647,3.9153833,12.146371Q4.0417199,12.222094,4.1716199,12.291527Q4.3015194,12.36096,4.4346695,12.423935Q4.5678196,12.48691,4.7038991,12.543276Q4.8399789,12.599642,4.9786605999999995,12.649263Q5.117342,12.698885,5.2582917,12.741642Q5.399241,12.784397,5.5421185,12.820187Q5.6849961,12.855975,5.8294578,12.88471Q5.9739189,12.913446,6.1196165,12.935058Q6.2653141,12.956671,6.4118967,12.971108Q6.5584793,12.985545,6.7055931,12.992773Q6.8527079,13,7,13ZM4.5,5.9500017C4.5,4.5972478,5.6196404,3.5,7,3.5C8.3803606,3.5,9.5,4.5972478,9.5,5.9500017C9.5,6.7830095,9.0750065,7.5162601,8.428573100000001,7.9590092L8.428573100000001,8.750005699999999C8.428573100000001,8.9425068,8.2678566,9.1000099,8.071428300000001,9.1000099L5.9285727,9.1000099C5.7321434,9.1000099,5.5714269,8.9425068,5.5714269,8.750005699999999L5.5714269,7.9590092C4.9250035,7.5162516,4.5,6.7829995,4.5,5.9500017ZM6.2857189,10.5C6.0892897,10.5,5.9285727,10.3424978,5.9285727,10.1499977C5.9285727,9.9567022,6.0852699,9.800005,6.2785654,9.800005L7.7214451,9.800005C7.9147406,9.800005,8.0714378,9.9567022,8.0714378,10.1499977C8.0714378,10.3424978,7.9107208,10.5,7.714292,10.5L6.2857189,10.5Z" fill-rule="evenodd" fill="#FFB100" fill-opacity="1" style="mix-blend-mode:passthrough"/></g></svg>