<svg xmlns="http://www.w3.org/2000/svg" xmlns:xlink="http://www.w3.org/1999/xlink" fill="none" version="1.1" width="22" height="25" viewBox="0 0 22 25"><rect x="0" y="0" width="22" height="25" rx="0" fill="#D8D8D8" fill-opacity="0"/><path d="M19.852905,18.697926C18.60998,16.995021,17.899732999999998,14.933612,17.899732999999998,12.872198L17.899732999999998,11.6174278C17.899732999999998,8.5701256,15.946559,6.0605807,13.28314,5.074688699999999C13.290178,4.625,13.280134,4.416883,13.280134,3.96875C13.280134,2.65625,12.392364,2,10.9718752,2C9.551383999999999,2,8.7600446,2.65625,8.7600446,3.96875C8.7600446,4.416883,8.7600446,4.625,8.7553301,5.0746891000000005C6.0919127,5.9709547,4.1387396,8.5701256,4.1387396,11.6174278L4.1387396,12.872198C4.1387396,15.023238,3.4284947,17.084649,2.18556654,18.697926C2.0080054421,18.966806,1.919224702,19.325314,2.096785881,19.683819C2.27434695,19.952698,2.54068893,20.221577,2.89581126,20.221577L7.6011825,20.221577C7.956305,21.834856,9.3767943,23,11.0636272,23C12.750458,23,14.170947,21.834856,14.526071,20.221577L19.142662,20.221577C19.497782,20.221577,19.764124,20.042326,19.941685,19.683819C20.030464,19.325314,20.030464,18.966806,19.852905,18.697926ZM10.9748468,21.117846C10.2645998,21.117846,9.7319169,20.759338,9.3767943,20.131952L12.572896,20.131952C12.217773,20.759338,11.6850901,21.117846,10.9748468,21.117846ZM4.493861900000001,18.339422C5.3816679,16.636516999999998,5.9143517,14.75436,5.9143517,12.782575L5.9143517,11.5278015C5.9143517,8.6597533,8.2226472,6.4190884,10.9748468,6.4190884C13.727044,6.4190884,16.035339999999998,8.749378199999999,16.035339999999998,11.5278015L16.035339999999998,12.782575C16.035339999999998,14.664732,16.568023,16.636516999999998,17.455831,18.339422L4.493861900000001,18.339422Z" fill="#333333" fill-opacity="1" style="mix-blend-mode:passthrough"/></svg>