<svg xmlns="http://www.w3.org/2000/svg" xmlns:xlink="http://www.w3.org/1999/xlink" fill="none" version="1.1" width="26" height="26" viewBox="0 0 26 26"><g><path d="M26,14.72755C26,20.953154,22.75,26.000004,13,26C3.25,25.999996,0,20.953154,0,14.72755C0.000006893029,9.7500019,3.25,0,6.5,0C9.75,0,9.4101496,3.2500005,13,3.2500005C16.589853,3.2500005,16.25,0,19.5,0C22.613787,-0.0000030671561,26,9.7499971,26,14.72755ZM6.8073978,10.987043Q6.1060138,11.222338,5.1455674,11.49683L5.1456223,11.497023Q5.0678024,11.519263,4.9945726,11.553732Q4.9213428,11.588202,4.8546109,11.634001Q4.787879,11.6798,4.7293835,11.735736Q4.670887,11.791673,4.6221499,11.85629Q4.5734129,11.920907,4.5357046,11.992522Q4.4979959,12.064137,4.4722977,12.140885Q4.446599,12.217634,4.4335804,12.297516Q4.4205618,12.377398,4.4205618,12.458334Q4.4205618,12.556805,4.4397726,12.653384Q4.4589834,12.749964,4.4966669,12.840939Q4.5343504,12.931915,4.5890584,13.013792Q4.6437664,13.095668,4.7133961,13.165298Q4.7830257,13.234928,4.8649025,13.289636Q4.9467783,13.344343,5.0377541,13.382028Q5.1287303,13.41971,5.2253098,13.438921Q5.3218899,13.458133,5.4203615,13.458134Q5.5604277,13.458134,5.6951008,13.419644L5.6951561,13.419836Q7.6513972,12.860749,8.6573086,12.429521Q9.2304983,12.183798,9.5553751,11.951675Q10.210938,11.483282,10.210938,10.833333Q10.210938,10.117677,9.470273,9.6943188Q9.1282835,9.4988394,8.5380878,9.330164Q7.5247493,9.040555,5.5618229,8.7600565L5.5617943,8.7602539Q5.4914355,8.7502003,5.4203615,8.7502003Q5.3218899,8.7502003,5.2253103,8.7694111Q5.1287303,8.7886219,5.0377541,8.8263044Q4.9467783,8.8639879,4.864902,8.9186954Q4.7830257,8.9734039,4.7133961,9.0430336Q4.6437664,9.1126633,4.5890584,9.1945391Q4.5343504,9.2764149,4.4966669,9.3673916Q4.4589834,9.4583683,4.4397726,9.5549479Q4.4205618,9.6515274,4.4205618,9.75Q4.4205618,9.8395233,4.4364662,9.9276237Q4.4523706,10.015723,4.483674,10.099596Q4.5149779,10.183469,4.5606842,10.260446Q4.6063905,10.337423,4.6650453,10.405055Q4.7237005,10.472687,4.7934375,10.528823Q4.8631749,10.584959,4.9417758,10.627812Q5.0203772,10.670667,5.105341,10.698874Q5.1903052,10.727082,5.2789288,10.739746L5.2789006,10.739944Q6.1507521,10.86453,6.8073978,10.987043ZM20.585938,8.7502003Q20.514904,8.7502003,20.444584,8.7602425L20.444555,8.7600451Q18.480576,9.0405331,17.466721,9.330122Q16.876293,9.4987669,16.534195,9.6941957Q15.79318,10.117511,15.79318,10.833333Q15.79318,11.483454,16.4491,11.951834Q16.774103,12.183912,17.347546,12.429603Q18.353983,12.860809,20.311289,13.419878L20.311344,13.419686Q20.44595,13.458134,20.585938,13.458134Q20.68441,13.458133,20.780987,13.438922Q20.877567,13.41971,20.968542,13.382027Q21.059517,13.344343,21.141394,13.289635Q21.22327,13.234927,21.292902,13.165298Q21.362532,13.095667,21.417238,13.013791Q21.471947,12.931915,21.509628,12.840939Q21.547314,12.749964,21.566525,12.653384Q21.585735,12.556805,21.585737,12.458334Q21.585737,12.377388,21.572716,12.297497Q21.559692,12.217606,21.533989,12.140849Q21.508286,12.064093,21.47057,11.992472Q21.432852,11.920849,21.384104,11.856228Q21.335356,11.791607,21.276848,11.735669Q21.21834,11.679731,21.151596,11.633935Q21.08485,11.588139,21.011608,11.553676Q20.938364,11.519213,20.860531,11.496981L20.860586,11.496789Q19.8997,11.222329,19.197948,10.987052Q19.85498,10.864539,20.72732,10.739955L20.727291,10.739758Q20.81592,10.727099,20.90089,10.698896Q20.985861,10.670692,21.06447,10.627842Q21.143078,10.584991,21.212822,10.528854Q21.282566,10.472719,21.341227,10.405086Q21.399887,10.337452,21.445599,10.260471Q21.49131,10.183492,21.522617,10.099615Q21.553925,10.015738,21.56983,9.9276333Q21.585737,9.839529,21.585737,9.75Q21.585735,9.6515274,21.566525,9.5549479Q21.547314,9.4583683,21.509628,9.3673916Q21.471945,9.2764149,21.417236,9.1945391Q21.36253,9.1126633,21.2929,9.0430336Q21.22327,8.9734039,21.141392,8.9186964Q21.059517,8.8639889,20.968542,8.8263054Q20.877567,8.7886219,20.780987,8.7694111Q20.68441,8.7502003,20.585938,8.7502003Z" fill-rule="evenodd" fill="#72B6FF" fill-opacity="1"/></g></svg>