<svg xmlns="http://www.w3.org/2000/svg" xmlns:xlink="http://www.w3.org/1999/xlink" fill="none" version="1.1" width="24" height="24" viewBox="0 0 24 24"><g transform="matrix(0,1,-1,0,25.001007080078125,-7.001007080078125)"><path d="M16.001007080078125,10L18.001007080078125,10L18.001007080078125,9.99980003Q18.099478680078125,9.99979997,18.196058280078127,9.98058909Q18.292637780078124,9.96137822,18.383613780078125,9.92369473Q18.474589780078126,9.88601124,18.556465880078125,9.8313033Q18.638342180078126,9.776595350000001,18.707972280078124,9.70696533Q18.777602180078127,9.6373353,18.832309980078126,9.55545908Q18.887017680078124,9.47358286,18.924701480078124,9.38260686Q18.962384980078124,9.29163089,18.981595980078126,9.1950513Q19.000806780078126,9.098471709,19.000807080078125,9Q19.000806780078126,8.901528291,18.981595980078126,8.8049487Q18.962384980078124,8.70836911,18.924701480078124,8.61739314Q18.887017680078124,8.52641714,18.832309980078126,8.44454092Q18.777602180078127,8.3626647,18.707972280078124,8.29303467Q18.638342180078126,8.223404649999999,18.556466080078124,8.16869676Q18.474589780078126,8.11398882,18.383613780078125,8.07630533Q18.292637780078124,8.03862178,18.196058280078127,8.01941091Q18.099478680078125,8.00020003,18.001007080078125,8.00019997L18.001007080078125,8L16.001007080078125,8L16.001007080078125,8.00019997Q15.902535371078125,8.00020003,15.805955780078126,8.01941091Q15.709376190078125,8.03862178,15.618400220078126,8.07630527Q15.527424220078125,8.11398876,15.445548000078125,8.1686967Q15.363671780078125,8.223404649999999,15.294041750078126,8.29303467Q15.224411730078124,8.3626647,15.169703840078125,8.44454092Q15.114995900078124,8.52641714,15.077312410078125,8.61739314Q15.039628860078125,8.70836911,15.020417990078125,8.8049487Q15.001207110078125,8.901528291,15.001207050078126,9Q15.001207110078125,9.098471709,15.020417990078125,9.1950513Q15.039628860078125,9.29163089,15.077312350078126,9.38260686Q15.114995840078125,9.47358286,15.169703780078125,9.55545908Q15.224411730078124,9.6373353,15.294041750078126,9.70696533Q15.363671780078125,9.776595350000001,15.445548000078125,9.83130324Q15.527424220078125,9.88601118,15.618400220078126,9.92369467Q15.709376190078125,9.96137822,15.805955780078126,9.98058909Q15.902535371078125,9.99979997,16.001007080078125,9.99980003L16.001007080078125,10Z" fill-rule="evenodd" fill="#999999" fill-opacity="1"/></g><path d="M24,13.594659C24,19.34137,21,24,12,23.999996C3,23.999992,0,19.34137,0,13.594659C0.0000063627958,9,3,0,6,0C9,0,8.6862917,3,12,3C15.31371,3,15,0,18,0C20.874264,-0.0000028312206,24,8.9999962,24,13.594659ZM22,13.594661Q22,10.222073,20.223394,5.8233252Q19.408175,3.8048999,18.558947,2.6897702Q18.204021,2.2237148,17.927969,2.0284216L18,2Q17.398148,2,16.623188,2.8188381Q14.558903,5,12,5Q9.4410992,5,7.3768148,2.8188391Q6.6018524,2,6,2L6.0177994,2.0411003Q5.737411,2.2348423,5.3830757,2.6962237Q4.5354595,3.7999084,3.7330279,5.8144283Q2.0000048,10.165216,2,13.594658Q2,21.999992,12.000002,21.999996Q17.509369,21.999998,19.957781,19.541145Q22,17.490215,22,13.594661Z" fill-rule="evenodd" fill="#999999" fill-opacity="1"/><g transform="matrix(0,1,-1,0,17.001007080078125,0.998992919921875)"><path d="M8.001007080078125,10L10.001007080078125,10L10.001007080078125,9.99980003Q10.099478680078125,9.99979997,10.196058280078125,9.98058909Q10.292637780078124,9.96137822,10.383613780078125,9.92369473Q10.474589780078125,9.88601124,10.556465880078125,9.8313033Q10.638342180078125,9.776595350000001,10.707972280078124,9.70696533Q10.777602180078125,9.6373353,10.832309980078126,9.55545908Q10.887017680078126,9.47358286,10.924701480078125,9.38260686Q10.962384980078125,9.29163089,10.981595980078126,9.1950513Q11.000806780078126,9.098471709,11.000807080078125,9Q11.000806780078126,8.901528291,10.981595980078126,8.8049487Q10.962384980078125,8.70836911,10.924701480078125,8.61739314Q10.887017680078126,8.52641714,10.832309980078126,8.44454092Q10.777602180078125,8.3626647,10.707972280078124,8.29303467Q10.638342180078125,8.223404649999999,10.556466080078124,8.16869676Q10.474589780078125,8.11398882,10.383613780078125,8.07630533Q10.292637780078124,8.03862178,10.196058280078125,8.01941091Q10.099478680078125,8.00020003,10.001007080078125,8.00019997L10.001007080078125,8L8.001007080078125,8L8.001007080078125,8.00019997Q7.902535371078125,8.00020003,7.805955780078125,8.01941091Q7.709376190078125,8.03862178,7.618400220078125,8.07630527Q7.527424220078125,8.11398876,7.445548000078125,8.1686967Q7.363671780078125,8.223404649999999,7.294041750078125,8.29303467Q7.224411730078125,8.3626647,7.169703840078125,8.44454092Q7.114995900078125,8.52641714,7.077312410078125,8.61739314Q7.039628860078125,8.70836911,7.0204179900781245,8.8049487Q7.001207110078125,8.901528291,7.001207050078125,9Q7.001207110078125,9.098471709,7.0204179900781245,9.1950513Q7.039628860078125,9.29163089,7.077312350078125,9.38260686Q7.114995840078125,9.47358286,7.169703780078125,9.55545908Q7.224411730078125,9.6373353,7.294041750078125,9.70696533Q7.363671780078125,9.776595350000001,7.445548000078125,9.83130324Q7.527424220078125,9.88601118,7.618400220078125,9.92369467Q7.709376190078125,9.96137822,7.805955780078125,9.98058909Q7.902535371078125,9.99979997,8.001007080078125,9.99980003L8.001007080078125,10Z" fill-rule="evenodd" fill="#999999" fill-opacity="1"/></g></svg>