<svg xmlns="http://www.w3.org/2000/svg" xmlns:xlink="http://www.w3.org/1999/xlink" fill="none" version="1.1" width="22" height="22.999801635742188" viewBox="0 0 22 22.999801635742188"><rect x="1" y="1.9998016357421875" width="20" height="20" rx="3" fill-opacity="0" stroke-opacity="1" stroke="#999999" fill="none" stroke-width="2"/><path d="M1.4444399179534912,8.110917299835204L2.444444417953491,8.110912799835205L19.55555741795349,8.110912799835205L20.55556041795349,8.110917299835204L20.55556041795349,6.110908299835205L19.55555741795349,6.110912799835205L2.444444417953491,6.110912799835205L1.4444399179534912,6.110908299835205L1.4444399179534912,8.110917299835204Z" fill-rule="evenodd" fill="#999999" fill-opacity="1"/><path d="M5.111311134093017,0.9998016357421875Q5.111311194093018,0.9013299267421875,5.130522074093017,0.8047503357421875Q5.149732944093017,0.7081707457421875,5.187416434093017,0.6171947757421875Q5.225099924093017,0.5262187757421875,5.2798078640930175,0.4443425557421875Q5.334515814093018,0.36246633574218745,5.4041458340930175,0.29283630574218755Q5.473775864093017,0.22320628574218748,5.555652084093017,0.1684983957421875Q5.637528304093018,0.11379045574218749,5.7285043040930175,0.07610696574218745Q5.819480274093017,0.03842341574218755,5.916059864093017,0.019212545742187448Q6.012639455093018,0.0000016657421875176937,6.111111164093018,0.000001605742187549275Q6.209582873093018,0.0000016657421875176937,6.306162464093018,0.019212545742187448Q6.402742054093018,0.03842341574218755,6.493718024093018,0.07610690574218748Q6.584694024093017,0.11379039574218752,6.666570244093018,0.16849833574218753Q6.748446464093018,0.22320628574218748,6.818076494093018,0.29283630574218755Q6.887706514093018,0.36246633574218745,6.942414404093018,0.4443425557421875Q6.997122344093017,0.5262187757421875,7.034805834093017,0.6171947757421875Q7.072489384093018,0.7081707457421875,7.091700254093018,0.8047503357421875Q7.110911134093017,0.9013299267421875,7.110911194093018,0.9998016357421875L7.111111164093018,0.9998016357421875L7.111111164093018,3.4442463357421875L7.110911194093018,3.4442463357421875Q7.110911134093017,3.5427179357421874,7.091700254093018,3.6392972357421876Q7.072489384093018,3.7358768357421877,7.034805894093018,3.8268528357421876Q6.997122404093018,3.9178288357421875,6.942414464093018,3.9997050357421875Q6.887706514093018,4.081581135742187,6.818076494093018,4.1512112357421875Q6.748446464093018,4.220841135742187,6.666570244093018,4.275548935742187Q6.584694024093017,4.330256935742188,6.493718024093018,4.367940635742188Q6.402742054093018,4.405624135742188,6.306162464093018,4.424835235742187Q6.209582873093018,4.444046035742188,6.111111164093018,4.444046235742188Q6.012639455093018,4.444046035742188,5.916059864093017,4.4248349357421874Q5.819480274093017,4.405623935742188,5.7285043040930175,4.367940435742188Q5.637528304093018,4.330256935742188,5.555652084093017,4.275549135742187Q5.473775864093017,4.220841435742187,5.4041458340930175,4.1512115357421875Q5.334515814093018,4.081581335742188,5.279807924093017,3.9997050357421875Q5.225099984093018,3.9178290357421877,5.187416494093018,3.8268530357421877Q5.149732944093017,3.7358770357421873,5.130522074093017,3.6392972357421876Q5.111311194093018,3.5427179357421874,5.111311134093017,3.4442463357421875L5.111111164093018,3.4442463357421875L5.111111164093018,0.9998016357421875L5.111311134093017,0.9998016357421875Z" fill-rule="evenodd" fill="#999999" fill-opacity="1"/><path d="M14.889088329069825,0.9998016357421875Q14.889088389069824,0.9013299267421875,14.908299269069824,0.8047503357421875Q14.927510139069824,0.7081707457421875,14.965193629069825,0.6171947757421875Q15.002877119069824,0.5262187757421875,15.057585059069824,0.4443425557421875Q15.112293009069823,0.36246633574218745,15.181923029069825,0.29283630574218755Q15.251553059069824,0.22320628574218748,15.333429279069824,0.1684983957421875Q15.415305499069824,0.11379045574218749,15.506281499069825,0.07610696574218745Q15.597257469069824,0.03842341574218755,15.693837059069825,0.019212545742187448Q15.790416650069824,0.0000016657421875176937,15.888888359069824,0.000001605742187549275Q15.987360068069824,0.0000016657421875176937,16.083939659069824,0.019212545742187448Q16.180519249069825,0.03842341574218755,16.271495219069823,0.07610690574218748Q16.362471219069825,0.11379039574218752,16.444347439069823,0.16849833574218753Q16.526223659069824,0.22320628574218748,16.595853689069823,0.29283630574218755Q16.665483709069825,0.36246633574218745,16.720191599069825,0.4443425557421875Q16.774899539069825,0.5262187757421875,16.812583029069824,0.6171947757421875Q16.850266579069825,0.7081707457421875,16.869477449069823,0.8047503357421875Q16.888688329069826,0.9013299267421875,16.888688389069824,0.9998016357421875L16.888888359069824,0.9998016357421875L16.888888359069824,3.4442463357421875L16.888688389069824,3.4442463357421875Q16.888688329069826,3.5427179357421874,16.869477449069823,3.6392972357421876Q16.850266579069825,3.7358768357421877,16.812583089069825,3.8268528357421876Q16.774899599069823,3.9178288357421875,16.720191659069823,3.9997050357421875Q16.665483709069825,4.081581135742187,16.595853689069823,4.1512112357421875Q16.526223659069824,4.220841135742187,16.444347439069823,4.275548935742187Q16.362471219069825,4.330256935742188,16.271495219069823,4.367940635742188Q16.180519249069825,4.405624135742188,16.083939659069824,4.424835235742187Q15.987360068069824,4.444046035742188,15.888888359069824,4.444046235742188Q15.790416650069824,4.444046035742188,15.693837059069825,4.4248349357421874Q15.597257469069824,4.405623935742188,15.506281499069825,4.367940435742188Q15.415305499069824,4.330256935742188,15.333429279069824,4.275549135742187Q15.251553059069824,4.220841435742187,15.181923029069825,4.1512115357421875Q15.112293009069823,4.081581335742188,15.057585119069824,3.9997050357421875Q15.002877179069824,3.9178290357421877,14.965193689069825,3.8268530357421877Q14.927510139069824,3.7358770357421873,14.908299269069824,3.6392972357421876Q14.889088389069824,3.5427179357421874,14.889088329069825,3.4442463357421875L14.888888359069824,3.4442463357421875L14.888888359069824,0.9998016357421875L14.889088329069825,0.9998016357421875Z" fill-rule="evenodd" fill="#999999" fill-opacity="1"/><path d="M6.111111164093018,12.999801635742188L15.888889764093017,12.999801635742188L15.888889764093017,12.999601665742187Q15.987360464093017,12.999601605742187,16.083940064093017,12.980390725742188Q16.180519164093017,12.961179855742188,16.271495164093018,12.923496365742187Q16.362471164093016,12.885812875742188,16.444348164093018,12.831104935742188Q16.526223164093018,12.776396985742188,16.59585416409302,12.706766965742187Q16.665484164093016,12.637136935742188,16.720191164093016,12.555260715742188Q16.774899164093018,12.473384495742188,16.812582164093016,12.382408495742187Q16.850266164093018,12.291432525742188,16.869478164093017,12.194852935742187Q16.888689164093016,12.098273344742188,16.888689164093016,11.999801635742188Q16.888689164093016,11.901329926742187,16.869478164093017,11.804750335742188Q16.85026716409302,11.708170745742187,16.81258316409302,11.617194775742188Q16.774899164093018,11.526218775742187,16.720191164093016,11.444342555742187Q16.665484164093016,11.362466335742187,16.59585416409302,11.292836305742188Q16.526223164093018,11.223206285742187,16.444348164093018,11.168498395742187Q16.362471164093016,11.113790455742187,16.271495164093018,11.076106965742188Q16.180519164093017,11.038423415742187,16.083940064093017,11.019212545742187Q15.987360464093017,11.000001665742188,15.888889764093017,11.000001605742188L15.888889764093017,10.999801635742188L6.111111164093018,10.999801635742188L6.111111164093018,11.000001605742188Q6.012639455093018,11.000001665742188,5.916059864093017,11.019212545742187Q5.819480274093017,11.038423415742187,5.7285043040930175,11.076106905742188Q5.637528304093018,11.113790395742187,5.555652084093017,11.168498335742187Q5.473775864093017,11.223206285742187,5.4041458340930175,11.292836305742188Q5.334515814093018,11.362466335742187,5.279807924093017,11.444342555742187Q5.225099984093018,11.526218775742187,5.187416494093018,11.617194775742188Q5.149732944093017,11.708170745742187,5.130522074093017,11.804750335742188Q5.111311194093018,11.901329926742187,5.111311134093017,11.999801635742188Q5.111311194093018,12.098273344742188,5.130522074093017,12.194852935742187Q5.149732944093017,12.291432525742188,5.187416434093017,12.382408495742187Q5.225099924093017,12.473384495742188,5.2798078640930175,12.555260715742188Q5.334515814093018,12.637136935742188,5.4041458340930175,12.706766965742187Q5.473775864093017,12.776396985742188,5.555652084093017,12.831104875742188Q5.637528304093018,12.885812815742188,5.7285043040930175,12.923496305742187Q5.819480274093017,12.961179855742188,5.916059864093017,12.980390725742188Q6.012639455093018,12.999601605742187,6.111111164093018,12.999601665742187L6.111111164093018,12.999801635742188Z" fill-rule="evenodd" fill="#999999" fill-opacity="1"/></svg>