<svg xmlns="http://www.w3.org/2000/svg" xmlns:xlink="http://www.w3.org/1999/xlink" fill="none" version="1.1" width="24" height="24.999801635742188" viewBox="0 0 24 24.999801635742188"><rect x="1" y="1.9998016357421875" width="22" height="22" rx="3" fill-opacity="0" stroke-opacity="1" stroke="#72B6FF" fill="none" stroke-width="2"/><path d="M1.6666622461395264,8.666473120300292L2.6666667461395264,8.666468620300293L21.333334746139528,8.666468620300293L22.333338746139525,8.666473120300292L22.333338746139525,6.666464120300293L21.333334746139528,6.666468620300293L2.6666667461395264,6.666468620300293L1.6666622461395264,6.666464120300293L1.6666622461395264,8.666473120300292Z" fill-rule="evenodd" fill="#72B6FF" fill-opacity="1"/><path d="M5.666866954558105,0.9998016357421875Q5.666867014558106,0.9013299267421875,5.686077894558105,0.8047503357421875Q5.705288764558105,0.7081707457421875,5.742972254558105,0.6171947757421875Q5.780655744558105,0.5262187757421875,5.835363684558105,0.4443425557421875Q5.8900716345581055,0.36246633574218745,5.959701654558105,0.29283630574218755Q6.029331684558105,0.22320628574218748,6.111207904558105,0.1684983957421875Q6.193084124558106,0.11379045574218749,6.284060124558105,0.07610696574218745Q6.375036094558105,0.03842341574218755,6.471615684558105,0.019212545742187448Q6.5681952755581055,0.0000016657421875176937,6.6666669845581055,0.000001605742187549275Q6.7651386935581055,0.0000016657421875176937,6.861718284558106,0.019212545742187448Q6.958297874558106,0.03842341574218755,7.049273844558106,0.07610690574218748Q7.140249844558105,0.11379039574218752,7.222126064558106,0.16849833574218753Q7.304002284558106,0.22320628574218748,7.3736323145581055,0.29283630574218755Q7.4432623345581055,0.36246633574218745,7.497970224558106,0.4443425557421875Q7.552678164558105,0.5262187757421875,7.590361654558105,0.6171947757421875Q7.628045204558106,0.7081707457421875,7.647256074558106,0.8047503357421875Q7.666466954558105,0.9013299267421875,7.666467014558106,0.9998016357421875L7.6666669845581055,0.9998016357421875L7.6666669845581055,3.6664681357421873L7.666467014558106,3.6664681357421873Q7.666466954558105,3.7649397357421877,7.647256074558106,3.8615193357421873Q7.628045204558106,3.9580989357421874,7.590361714558106,4.049074635742187Q7.552678224558106,4.140050635742187,7.4979702845581055,4.221926935742188Q7.4432623345581055,4.303802935742187,7.3736323145581055,4.373433135742188Q7.304002284558106,4.443063035742187,7.222126064558106,4.4977708357421875Q7.140249844558105,4.552478835742187,7.049273844558106,4.590162535742188Q6.958297874558106,4.627846035742188,6.861718284558106,4.6470568357421875Q6.7651386935581055,4.666267835742188,6.6666669845581055,4.666268135742188Q6.5681952755581055,4.666267835742188,6.471615684558105,4.6470568357421875Q6.375036094558105,4.627845735742188,6.284060124558105,4.590162235742188Q6.193084124558106,4.552478835742187,6.111207904558105,4.497771035742188Q6.029331684558105,4.443063235742187,5.959701654558105,4.373433335742187Q5.8900716345581055,4.3038034357421875,5.835363744558105,4.221926935742188Q5.780655804558106,4.140050935742187,5.742972314558106,4.049074635742187Q5.705288764558105,3.9580989357421874,5.686077894558105,3.8615191357421876Q5.666867014558106,3.7649397357421877,5.666866954558105,3.6664681357421873L5.6666669845581055,3.6664681357421873L5.6666669845581055,0.9998016357421875L5.666866954558105,0.9998016357421875Z" fill-rule="evenodd" fill="#72B6FF" fill-opacity="1"/><path d="M16.33353203176758,0.9998016357421875Q16.333532091767577,0.9013299267421875,16.35274297176758,0.8047503357421875Q16.371953841767578,0.7081707457421875,16.409637331767577,0.6171947757421875Q16.44732082176758,0.5262187757421875,16.50202876176758,0.4443425557421875Q16.556736711767577,0.36246633574218745,16.62636673176758,0.29283630574218755Q16.695996761767578,0.22320628574218748,16.77787298176758,0.1684983957421875Q16.859749201767578,0.11379045574218749,16.95072520176758,0.07610696574218745Q17.041701171767578,0.03842341574218755,17.13828076176758,0.019212545742187448Q17.23486035276758,0.0000016657421875176937,17.333332061767578,0.000001605742187549275Q17.431803770767576,0.0000016657421875176937,17.528383361767577,0.019212545742187448Q17.62496295176758,0.03842341574218755,17.715938921767577,0.07610690574218748Q17.80691492176758,0.11379039574218752,17.888791141767577,0.16849833574218753Q17.97066736176758,0.22320628574218748,18.040297391767577,0.29283630574218755Q18.10992741176758,0.36246633574218745,18.16463530176758,0.4443425557421875Q18.21934324176758,0.5262187757421875,18.257026731767578,0.6171947757421875Q18.29471028176758,0.7081707457421875,18.313921151767577,0.8047503357421875Q18.33313203176758,0.9013299267421875,18.333132091767578,0.9998016357421875L18.333332061767578,0.9998016357421875L18.333332061767578,3.6664681357421873L18.333132091767578,3.6664681357421873Q18.33313203176758,3.7649397357421877,18.313921151767577,3.8615193357421873Q18.29471028176758,3.9580989357421874,18.25702679176758,4.049074635742187Q18.219343301767577,4.140050635742187,18.164635361767576,4.221926935742188Q18.10992741176758,4.303802935742187,18.040297391767577,4.373433135742188Q17.97066736176758,4.443063035742187,17.888791141767577,4.4977708357421875Q17.80691492176758,4.552478835742187,17.715938921767577,4.590162535742188Q17.62496295176758,4.627846035742188,17.528383361767577,4.6470568357421875Q17.431803770767576,4.666267835742188,17.333332061767578,4.666268135742188Q17.23486035276758,4.666267835742188,17.13828076176758,4.6470568357421875Q17.041701171767578,4.627845735742188,16.95072520176758,4.590162235742188Q16.859749201767578,4.552478835742187,16.77787298176758,4.497771035742188Q16.695996761767578,4.443063235742187,16.62636673176758,4.373433335742187Q16.556736711767577,4.3038034357421875,16.502028821767578,4.221926935742188Q16.447320881767578,4.140050935742187,16.40963739176758,4.049074635742187Q16.371953841767578,3.9580989357421874,16.35274297176758,3.8615191357421876Q16.333532091767577,3.7649397357421877,16.33353203176758,3.6664681357421873L16.333332061767578,3.6664681357421873L16.333332061767578,0.9998016357421875L16.33353203176758,0.9998016357421875Z" fill-rule="evenodd" fill="#72B6FF" fill-opacity="1"/><path d="M6.6666669845581055,13.999801635742188L17.333334984558107,13.999801635742188L17.333334984558107,13.999601665742187Q17.431805984558103,13.999601605742187,17.528384984558105,13.980390725742188Q17.624964984558105,13.961179855742188,17.715939984558105,13.923496365742187Q17.806915984558106,13.885812875742188,17.888792984558105,13.831104935742188Q17.970669984558107,13.776396985742188,18.040298984558106,13.706766965742187Q18.109928984558106,13.637136935742188,18.164636984558108,13.555260715742188Q18.219343984558105,13.473384495742188,18.257028984558104,13.382408495742187Q18.294711984558106,13.291432525742188,18.313923984558105,13.194852935742187Q18.333134984558107,13.098273344742188,18.333134984558107,12.999801635742188Q18.333134984558107,12.901329926742187,18.313922984558104,12.804750335742188Q18.294711984558106,12.708170745742187,18.257028984558104,12.617194775742188Q18.219343984558105,12.526218775742187,18.164636984558108,12.444342555742187Q18.109928984558106,12.362466335742187,18.040298984558106,12.292836305742188Q17.970669984558107,12.223206285742187,17.888792984558105,12.168498395742187Q17.806915984558106,12.113790455742187,17.715939984558105,12.076106965742188Q17.624964984558105,12.038423415742187,17.528384984558105,12.019212545742187Q17.431805984558103,12.000001665742188,17.333334984558107,12.000001605742188L17.333334984558107,11.999801635742188L6.6666669845581055,11.999801635742188L6.6666669845581055,12.000001605742188Q6.5681952755581055,12.000001665742188,6.471615684558105,12.019212545742187Q6.375036094558105,12.038423415742187,6.284060124558105,12.076106905742188Q6.193084124558106,12.113790395742187,6.111207904558105,12.168498335742187Q6.029331684558105,12.223206285742187,5.959701654558105,12.292836305742188Q5.8900716345581055,12.362466335742187,5.835363744558105,12.444342555742187Q5.780655804558106,12.526218775742187,5.742972314558106,12.617194775742188Q5.705288764558105,12.708170745742187,5.686077894558105,12.804750335742188Q5.666867014558106,12.901329926742187,5.666866954558105,12.999801635742188Q5.666867014558106,13.098273344742188,5.686077894558105,13.194852935742187Q5.705288764558105,13.291432525742188,5.742972254558105,13.382408495742187Q5.780655744558105,13.473384495742188,5.835363684558105,13.555260715742188Q5.8900716345581055,13.637136935742188,5.959701654558105,13.706766965742187Q6.029331684558105,13.776396985742188,6.111207904558105,13.831104875742188Q6.193084124558106,13.885812815742188,6.284060124558105,13.923496305742187Q6.375036094558105,13.961179855742188,6.471615684558105,13.980390725742188Q6.5681952755581055,13.999601605742187,6.6666669845581055,13.999601665742187L6.6666669845581055,13.999801635742188Z" fill-rule="evenodd" fill="#72B6FF" fill-opacity="1"/><rect x="1.8461538553237915" y="1.9228785634040833" width="20.30769157409668" height="5.538461685180664" rx="0" fill="#72B6FF" fill-opacity="1"/></svg>