<svg xmlns="http://www.w3.org/2000/svg" xmlns:xlink="http://www.w3.org/1999/xlink" fill="none" version="1.1" width="14" height="14" viewBox="0 0 14 14"><defs><clipPath id="master_svg0_274_5992"><rect x="0" y="0" width="14" height="14" rx="0"/></clipPath></defs><g clip-path="url(#master_svg0_274_5992)"><path d="M4.375,7Q4.3749999,7.08617991,4.358187,7.1707038999999995Q4.341374,7.255228,4.3083943,7.3348479Q4.2754147,7.4144678,4.2275357,7.4861238Q4.1796567,7.5577799,4.1187184,7.6187184Q4.0577799,7.6796567,3.9861238,7.7275357Q3.9144677999999997,7.7754147,3.8348478999999998,7.8083944Q3.755228,7.8413742,3.6707039,7.858187Q3.5861799100000002,7.8749999,3.5,7.875Q3.41382003,7.8749999,3.32929593,7.858187Q3.2447719,7.841374,3.1651519500000003,7.8083943Q3.08553204,7.7754147,3.01387602,7.7275357Q2.94221997,7.6796567,2.88128155,7.6187184Q2.82034311,7.5577799,2.7724640799999998,7.4861238Q2.724585041,7.4144678,2.691605397,7.3348479Q2.658625752,7.255228,2.641812876,7.1707038999999995Q2.625,7.08617991,2.625,7Q2.625,6.91382003,2.641812876,6.82929593Q2.658625752,6.7447719,2.691605397,6.66515195Q2.724585041,6.58553204,2.77246407,6.51387602Q2.82034311,6.44221997,2.88128155,6.38128155Q2.94221997,6.32034311,3.01387602,6.27246408Q3.08553204,6.224585041,3.1651519500000003,6.191605397Q3.2447719,6.158625752,3.32929593,6.141812876Q3.41382003,6.125,3.5,6.125Q3.5861799100000002,6.125,3.6707039,6.141812876Q3.755228,6.158625752,3.8348478999999998,6.191605397Q3.9144677999999997,6.224585041,3.9861238,6.27246407Q4.0577799,6.32034311,4.1187184,6.38128155Q4.1796567,6.44221997,4.2275357,6.51387602Q4.2754147,6.58553204,4.3083944,6.66515195Q4.3413742,6.7447719,4.358187,6.82929593Q4.3749999,6.91382003,4.375,7Z" fill="#666666" fill-opacity="1" style="mix-blend-mode:passthrough"/><path d="M5.9568292453125,3.8664740178125C5.7857176963125,4.0369289178125,5.7857176963125,4.3139881478125,5.9568292453125,4.4844427078125C7.3678292953125,5.8647429578125,7.3678292953125,8.135392657812499,5.9568292453125,9.5156927578125C5.7810308073125,9.6845407578125,5.7771252473125,9.9644980578125,5.9481449253125,10.1381835578125C6.1191646153125,10.3118700578125,6.3991491153125,10.3122959578125,6.5706964753125,10.1391305578125C8.3297380953125,8.4160652578125,8.3297380953125,5.5840703578125,6.5706964753125,3.8610052878125C6.3992191553125,3.6941256378125,6.1253067853125,3.6965657438125,5.9568292453125,3.8664740178125Z" fill="#666666" fill-opacity="1" style="mix-blend-mode:passthrough"/><path d="M9.0357753059375,1.4382507996875C8.8630397359375,1.2723448496875,8.5890120259375,1.2761676346875,8.4209723759375,1.4468275196875C8.2529327349375,1.6174873996875,8.2533498409375,1.8915407696875,8.4219080459375,2.0616883596875C11.1924488859375,4.7709896796875,11.1924488859375,9.228951979687501,8.4219080459375,11.9382521796875C8.2461181579375,12.1071011796875,8.2422168699375,12.3870511796875,8.4132328159375,12.5607331796875C8.5842487859375,12.7344181796875,8.8642269359375,12.7348461796875,9.0357753059375,12.5616901796875C12.155139685937499,9.5099525796875,12.155139685937499,4.4899880796875,9.0357753059375,1.4382507996875Z" fill="#666666" fill-opacity="1" style="mix-blend-mode:passthrough"/></g></svg>