<svg xmlns="http://www.w3.org/2000/svg" xmlns:xlink="http://www.w3.org/1999/xlink" fill="none" version="1.1" width="14" height="14" viewBox="0 0 14 14"><defs><clipPath id="master_svg0_189_9119/189_9054"><rect x="0" y="0" width="14" height="14" rx="0"/></clipPath></defs><g clip-path="url(#master_svg0_189_9119/189_9054)"><path d="M4.375,6.999755859375Q4.3749999,7.085935769375,4.358187,7.1704597593749995Q4.341374,7.254983859375,4.3083943,7.334603759375Q4.2754147,7.414223659375,4.2275357,7.485879659375Q4.1796567,7.557535759375,4.1187184,7.618474259375Q4.0577799,7.679412559375,3.9861238,7.727291559375Q3.9144677999999997,7.775170559375,3.8348478999999998,7.808150259375Q3.755228,7.841130059375,3.6707039,7.857942859375Q3.5861799100000002,7.874755759375,3.5,7.874755859375Q3.41382003,7.874755759375,3.32929593,7.857942859375Q3.2447719,7.841129859375,3.1651519500000003,7.808150159375Q3.08553204,7.775170559375,3.01387602,7.727291559375Q2.94221997,7.679412559375,2.88128155,7.618474259375Q2.82034311,7.557535759375,2.7724640799999998,7.485879659375Q2.724585041,7.414223659375,2.691605397,7.334603759375Q2.658625752,7.254983859375,2.641812876,7.1704597593749995Q2.625,7.085935769375,2.625,6.999755859375Q2.625,6.913575889375,2.641812876,6.829051789375Q2.658625752,6.744527759375,2.691605397,6.664907809375Q2.724585041,6.585287899375,2.77246407,6.513631879375Q2.82034311,6.441975829375,2.88128155,6.381037409375Q2.94221997,6.320098969375,3.01387602,6.272219939375Q3.08553204,6.224340900375,3.1651519500000003,6.191361256375Q3.2447719,6.158381611375,3.32929593,6.141568735375Q3.41382003,6.124755859375,3.5,6.124755859375Q3.5861799100000002,6.124755859375,3.6707039,6.141568735375Q3.755228,6.158381611375,3.8348478999999998,6.191361256375Q3.9144677999999997,6.224340900375,3.9861238,6.272219929375Q4.0577799,6.320098969375,4.1187184,6.381037409375Q4.1796567,6.441975829375,4.2275357,6.513631879375Q4.2754147,6.585287899375,4.3083944,6.664907809375Q4.3413742,6.744527759375,4.358187,6.829051789375Q4.3749999,6.913575889375,4.375,6.999755859375Z" fill="#FFFFFF" fill-opacity="1" style="mix-blend-mode:passthrough"/><path d="M5.956707175,3.8663519475C5.785595626,4.0368068475,5.785595626,4.3138660775,5.956707175,4.4843206375C7.367707225,5.8646208875,7.367707225,8.135270587499999,5.956707175,9.5155706875C5.780908737,9.6844186875,5.777003177,9.9643759875,5.948022855,10.1380614875C6.119042545,10.3117479875,6.399027045,10.3121738875,6.570574405,10.1390084875C8.329616025,8.4159431875,8.329616025,5.5839482875,6.570574405,3.8608832175C6.399097085,3.6940035675,6.125184715,3.6964436735,5.956707175,3.8663519475Z" fill="#FFFFFF" fill-opacity="1" style="mix-blend-mode:passthrough"/><path d="M9.0357753059375,1.43837287C8.8630397359375,1.27246692,8.5890120259375,1.276289705,8.4209723759375,1.44694959C8.2529327349375,1.61760947,8.2533498409375,1.89166284,8.4219080459375,2.06181043C11.1924488859375,4.77111175,11.1924488859375,9.229074050000001,8.4219080459375,11.93837425C8.2461181579375,12.10722325,8.2422168699375,12.38717325,8.4132328159375,12.56085525C8.5842487859375,12.73454025,8.8642269359375,12.73496825,9.0357753059375,12.56181225C12.155139685937499,9.51007465,12.155139685937499,4.49011015,9.0357753059375,1.43837287Z" fill="#FFFFFF" fill-opacity="1" style="mix-blend-mode:passthrough"/></g></svg>