<svg xmlns="http://www.w3.org/2000/svg" xmlns:xlink="http://www.w3.org/1999/xlink" fill="none" version="1.1" width="18" height="18" viewBox="0 0 18 18"><defs><clipPath id="master_svg0_189_7148"><rect x="0" y="0" width="18" height="18" rx="0"/></clipPath></defs><g clip-path="url(#master_svg0_189_7148)"><path d="M5.625,9Q5.625,9.0552678,5.6195829,9.1102694Q5.6141658,9.1652709,5.6033833,9.2194766Q5.5926013,9.2736824,5.5765579,9.3265703Q5.5605145,9.3794582,5.5393643,9.4305187Q5.5182142,9.4815795,5.492161299999999,9.5303214Q5.4661083,9.5790632,5.4354031,9.625016500000001Q5.4046981,9.67097,5.3696365,9.7136924Q5.3345752,9.7564149,5.295495,9.795495Q5.2564149,9.8345752,5.2136924,9.869636700000001Q5.1709700000000005,9.904698100000001,5.1250165,9.9354031Q5.0790632,9.9661083,5.0303211999999995,9.9921613Q4.9815795000000005,10.0182142,4.9305186,10.039364299999999Q4.8794581,10.0605145,4.8265703,10.076557900000001Q4.7736824,10.0926013,4.7194765,10.1033835Q4.6652708,10.1141658,4.6102693,10.119582900000001Q4.5552678,10.125,4.5,10.125Q4.4447323999999995,10.125,4.3897307,10.119582900000001Q4.33472919,10.1141658,4.28052336,10.1033833Q4.2263176399999995,10.0926013,4.17342979,10.076557900000001Q4.12054193,10.0605145,4.06948113,10.039364299999999Q4.01842046,10.0182142,3.9696787000000002,9.9921613Q3.92093688,9.9661083,3.87498343,9.9354031Q3.82903004,9.904698100000001,3.78630751,9.8696365Q3.74358505,9.8345752,3.70450485,9.795495Q3.6654247,9.7564149,3.63036326,9.7136924Q3.59530178,9.67097,3.56459665,9.625016500000001Q3.53389159,9.5790632,3.50783856,9.5303212Q3.48178555,9.4815795,3.460635513,9.4305186Q3.439485483,9.3794581,3.423442118,9.3265703Q3.407398753,9.2736824,3.396616556,9.2194765Q3.385834364,9.1652708,3.3804171821,9.1102693Q3.375,9.0552678,3.375,9Q3.375,8.9447324,3.3804171821,8.8897307Q3.385834364,8.834729190000001,3.396616556,8.78052336Q3.407398753,8.72631764,3.423442118,8.67342979Q3.439485483,8.62054193,3.460635513,8.56948113Q3.48178555,8.51842046,3.50783858,8.4696787Q3.53389159,8.42093688,3.56459667,8.37498343Q3.59530178,8.32903004,3.63036323,8.28630751Q3.6654247,8.24358505,3.70450485,8.20450485Q3.74358505,8.165424699999999,3.78630751,8.13036326Q3.82903004,8.09530178,3.87498343,8.06459665Q3.92093682,8.03389159,3.96967864,8.00783856Q4.0184204,7.98178555,4.06948107,7.960635513Q4.12054181,7.939485483,4.17342979,7.923442118Q4.2263176399999995,7.907398753,4.28052336,7.896616556Q4.33472919,7.885834364,4.3897308,7.8804171821Q4.4447323999999995,7.875,4.5,7.875Q4.5552678,7.875,4.6102694,7.8804171821Q4.6652709,7.885834364,4.7194766,7.896616556Q4.7736824,7.907398753,4.8265703,7.923442118Q4.8794582,7.939485483,4.9305187,7.960635513Q4.9815795000000005,7.98178555,5.0303214,8.00783858Q5.0790632,8.03389159,5.1250165,8.06459667Q5.1709700000000005,8.09530178,5.2136924,8.13036323Q5.2564149,8.165424699999999,5.295495,8.20450485Q5.3345752,8.24358505,5.3696367,8.28630751Q5.4046981,8.32903004,5.4354031,8.37498343Q5.4661083,8.42093682,5.492161299999999,8.46967864Q5.5182142,8.5184204,5.5393643,8.56948107Q5.5605145,8.62054181,5.5765579,8.67342979Q5.5926013,8.72631764,5.6033835,8.78052336Q5.6141658,8.834729190000001,5.6195829,8.8897308Q5.625,8.9447324,5.625,9Z" fill="#333333" fill-opacity="1" style="mix-blend-mode:passthrough"/><path d="M7.658784826484375,4.9712157515625C7.438784256484375,5.1903720515625,7.438784256484375,5.5465910415625,7.658784826484375,5.7657469515625C9.472927696484374,7.5404186515625,9.472927696484374,10.4598255515625,7.658784826484375,12.2344970515625C7.432758256484375,12.4515871515625,7.427736818484375,12.8115320515625,7.647619266484375,13.0348424515625C7.867501706484375,13.2581539515625,8.227481786484375,13.2587013515625,8.448042686484374,13.0360593515625C10.709667696484376,10.8206901515625,10.709667696484376,7.1795537515625,8.448042686484374,4.9641845415625C8.227571846484375,4.7496249825625,7.875398786484375,4.7527622615625,7.658784826484375,4.9712157515625Z" fill="#333333" fill-opacity="1" style="mix-blend-mode:passthrough"/><path d="M11.617418823867187,1.8491970425C11.395330253867188,1.6358893885,11.043008923867188,1.6408043985,10.826957943867187,1.8602242425C10.610906976867188,2.0796440824999998,10.611443254867188,2.4319984325,10.828160953867188,2.6507596325C14.390284813867188,6.1341472125,14.390284813867188,11.8658118125,10.828160953867188,15.3491988125C10.602145377867188,15.5662908125,10.597129437867187,15.9262268125,10.817007083867187,16.1495318125C11.036884753867188,16.3728398125,11.396856663867187,16.3733908125,11.617418823867187,16.1507618125C15.628030313867187,12.2270998125,15.628030313867187,5.7728591125,11.617418823867187,1.8491970425Z" fill="#333333" fill-opacity="1" style="mix-blend-mode:passthrough"/></g></svg>