<svg xmlns="http://www.w3.org/2000/svg" xmlns:xlink="http://www.w3.org/1999/xlink" fill="none" version="1.1" width="26" height="26" viewBox="0 0 26 26"><g><path d="M26,14.72755C26,20.953154,22.75,26.000004,13,26C3.25,25.999996,0,20.953154,0,14.72755C0.000006893029,9.7500019,3.25,0,6.5,0C9.75,0,9.4101496,3.2500005,13,3.2500005C16.589853,3.2500005,16.25,0,19.5,0C22.613787,-0.0000030671561,26,9.7499971,26,14.72755ZM6.8037052,10.987043Q6.1023211,11.222338,5.1418748,11.49683L5.1419296,11.497023Q5.0641088,11.519263,4.9908795,11.553732Q4.9176497,11.588202,4.8509183,11.634001Q4.7841864,11.6798,4.7256908,11.735736Q4.6671944,11.791673,4.6184573,11.85629Q4.5697207,11.920907,4.532012,11.992522Q4.4943037,12.064137,4.468605,12.140885Q4.4429064,12.217634,4.4298878,12.297516Q4.4168692,12.377398,4.4168692,12.458334Q4.4168692,12.556805,4.4360795,12.653384Q4.4552903,12.749964,4.4929738,12.840939Q4.5306573,12.931915,4.5853653,13.013792Q4.6400733,13.095668,4.7097034,13.165298Q4.7793331,13.234928,4.8612094,13.289636Q4.9430857,13.344343,5.0340614,13.382028Q5.1250377,13.41971,5.2216177,13.438921Q5.3181973,13.458133,5.4166689,13.458134Q5.556735,13.458134,5.6914082,13.419644L5.6914635,13.419836Q7.6477046,12.860749,8.653616,12.429521Q9.2268057,12.183798,9.5516825,11.951675Q10.207245,11.483282,10.207245,10.833333Q10.207245,10.117677,9.4665804,9.6943188Q9.1245909,9.4988394,8.5343952,9.330164Q7.5210567,9.040555,5.5581303,8.7600565L5.5581017,8.7602539Q5.4877429,8.7502003,5.4166689,8.7502003Q5.3181973,8.7502003,5.2216177,8.7694111Q5.1250377,8.7886219,5.0340614,8.8263044Q4.9430857,8.8639879,4.8612094,8.9186954Q4.7793331,8.9734039,4.7097034,9.0430336Q4.6400733,9.1126633,4.5853653,9.1945391Q4.5306573,9.2764149,4.4929738,9.3673916Q4.4552903,9.4583683,4.4360795,9.5549479Q4.4168692,9.6515274,4.4168692,9.75Q4.4168692,9.8395233,4.4327741,9.9276237Q4.448679,10.015723,4.4799819,10.099596Q4.5112858,10.183469,4.5569916,10.260446Q4.6026978,10.337423,4.6613526,10.405055Q4.7200079,10.472687,4.7897449,10.528823Q4.8594818,10.584959,4.9380827,10.627812Q5.0166841,10.670667,5.1016483,10.698874Q5.1866121,10.727082,5.2752361,10.739746L5.275208,10.739944Q6.1470594,10.86453,6.8037052,10.987043ZM20.584412,8.7502003Q20.513378,8.7502003,20.443058,8.7602425L20.443029,8.7600451Q18.47905,9.0405331,17.465195,9.330122Q16.874767,9.4987669,16.532669,9.6941957Q15.791654,10.117511,15.791654,10.833333Q15.791654,11.483454,16.447575,11.951834Q16.772577,12.183912,17.34602,12.429603Q18.352457,12.860809,20.309763,13.419878L20.309818,13.419686Q20.444424,13.458134,20.584412,13.458134Q20.682884,13.458133,20.779463,13.438922Q20.876041,13.41971,20.967016,13.382027Q21.057991,13.344343,21.13987,13.289635Q21.221745,13.234927,21.291376,13.165298Q21.361006,13.095667,21.415714,13.013791Q21.470421,12.931915,21.508102,12.840939Q21.545788,12.749964,21.564999,12.653384Q21.584209,12.556805,21.584211,12.458334Q21.584211,12.377388,21.57119,12.297497Q21.558167,12.217606,21.532463,12.140849Q21.50676,12.064093,21.469042,11.992472Q21.431326,11.920849,21.382578,11.856228Q21.33383,11.791607,21.275322,11.735669Q21.216812,11.679731,21.150068,11.633935Q21.083324,11.588139,21.01008,11.553676Q20.936838,11.519213,20.859005,11.496981L20.85906,11.496789Q19.898174,11.222329,19.196423,10.987052Q19.853455,10.864539,20.725794,10.739955L20.725765,10.739758Q20.814394,10.727099,20.899364,10.698896Q20.984337,10.670692,21.062946,10.627842Q21.141552,10.584991,21.211296,10.528854Q21.28104,10.472719,21.339703,10.405086Q21.398363,10.337452,21.444073,10.260471Q21.489784,10.183492,21.521091,10.099615Q21.552399,10.015738,21.568304,9.9276333Q21.584209,9.839529,21.584211,9.75Q21.584209,9.6515274,21.564999,9.5549479Q21.545788,9.4583683,21.508104,9.3673916Q21.470421,9.2764149,21.415714,9.1945391Q21.361006,9.1126633,21.291376,9.0430336Q21.221745,8.9734039,21.139868,8.9186964Q21.057991,8.8639889,20.967016,8.8263054Q20.876041,8.7886219,20.779461,8.7694111Q20.682884,8.7502003,20.584412,8.7502003Z" fill-rule="evenodd" fill="#000000" fill-opacity="1"/></g></svg>