<svg xmlns="http://www.w3.org/2000/svg" xmlns:xlink="http://www.w3.org/1999/xlink" fill="none" version="1.1" width="22" height="22.99981689453125" viewBox="0 0 22 22.99981689453125"><rect x="1" y="1.99981689453125" width="20" height="20" rx="3" fill-opacity="0" stroke-opacity="1" stroke="#000000" fill="none" stroke-width="2"/><path d="M1.4444399179534912,8.110932558624267L2.444444417953491,8.110928058624268L19.55555741795349,8.110928058624268L20.55556041795349,8.110932558624267L20.55556041795349,6.110923558624267L19.55555741795349,6.110928058624268L2.444444417953491,6.110928058624268L1.4444399179534912,6.110923558624267L1.4444399179534912,8.110932558624267Z" fill-rule="evenodd" fill="#000000" fill-opacity="1"/><path d="M5.111311134093017,0.99981689453125Q5.111311194093018,0.90134518553125,5.130522074093017,0.80476559453125Q5.149732944093017,0.70818600453125,5.187416434093017,0.61721003453125Q5.225099924093017,0.52623403453125,5.2798078640930175,0.44435781453125Q5.334515814093018,0.36248159453124995,5.4041458340930175,0.29285156453125005Q5.473775864093017,0.22322154453124998,5.555652084093017,0.16851365453125Q5.637528304093018,0.11380571453124999,5.7285043040930175,0.07612222453124995Q5.819480274093017,0.03843867453125005,5.916059864093017,0.019227804531249948Q6.012639455093018,0.000016924531250017694,6.111111164093018,0.000016864531250049275Q6.209582873093018,0.000016924531250017694,6.306162464093018,0.019227804531249948Q6.402742054093018,0.03843867453125005,6.493718024093018,0.07612216453124998Q6.584694024093017,0.11380565453125002,6.666570244093018,0.16851359453125003Q6.748446464093018,0.22322154453124998,6.818076494093018,0.29285156453125005Q6.887706514093018,0.36248159453124995,6.942414404093018,0.44435781453125Q6.997122344093017,0.52623403453125,7.034805834093017,0.61721003453125Q7.072489384093018,0.70818600453125,7.091700254093018,0.80476559453125Q7.110911134093017,0.90134518553125,7.110911194093018,0.99981689453125L7.111111164093018,0.99981689453125L7.111111164093018,3.44426159453125L7.110911194093018,3.44426159453125Q7.110911134093017,3.54273319453125,7.091700254093018,3.63931249453125Q7.072489384093018,3.73589209453125,7.034805894093018,3.82686809453125Q6.997122404093018,3.91784409453125,6.942414464093018,3.99972029453125Q6.887706514093018,4.08159639453125,6.818076494093018,4.15122649453125Q6.748446464093018,4.22085639453125,6.666570244093018,4.27556419453125Q6.584694024093017,4.330272194531251,6.493718024093018,4.36795589453125Q6.402742054093018,4.40563939453125,6.306162464093018,4.42485049453125Q6.209582873093018,4.4440612945312505,6.111111164093018,4.44406149453125Q6.012639455093018,4.4440612945312505,5.916059864093017,4.42485019453125Q5.819480274093017,4.4056391945312505,5.7285043040930175,4.3679556945312505Q5.637528304093018,4.330272194531251,5.555652084093017,4.27556439453125Q5.473775864093017,4.22085669453125,5.4041458340930175,4.15122679453125Q5.334515814093018,4.08159659453125,5.279807924093017,3.99972029453125Q5.225099984093018,3.91784429453125,5.187416494093018,3.82686829453125Q5.149732944093017,3.73589229453125,5.130522074093017,3.63931249453125Q5.111311194093018,3.54273319453125,5.111311134093017,3.44426159453125L5.111111164093018,3.44426159453125L5.111111164093018,0.99981689453125L5.111311134093017,0.99981689453125Z" fill-rule="evenodd" fill="#000000" fill-opacity="1"/><path d="M14.889088329069825,0.99981689453125Q14.889088389069824,0.90134518553125,14.908299269069824,0.80476559453125Q14.927510139069824,0.70818600453125,14.965193629069825,0.61721003453125Q15.002877119069824,0.52623403453125,15.057585059069824,0.44435781453125Q15.112293009069823,0.36248159453124995,15.181923029069825,0.29285156453125005Q15.251553059069824,0.22322154453124998,15.333429279069824,0.16851365453125Q15.415305499069824,0.11380571453124999,15.506281499069825,0.07612222453124995Q15.597257469069824,0.03843867453125005,15.693837059069825,0.019227804531249948Q15.790416650069824,0.000016924531250017694,15.888888359069824,0.000016864531250049275Q15.987360068069824,0.000016924531250017694,16.083939659069824,0.019227804531249948Q16.180519249069825,0.03843867453125005,16.271495219069823,0.07612216453124998Q16.362471219069825,0.11380565453125002,16.444347439069823,0.16851359453125003Q16.526223659069824,0.22322154453124998,16.595853689069823,0.29285156453125005Q16.665483709069825,0.36248159453124995,16.720191599069825,0.44435781453125Q16.774899539069825,0.52623403453125,16.812583029069824,0.61721003453125Q16.850266579069825,0.70818600453125,16.869477449069823,0.80476559453125Q16.888688329069826,0.90134518553125,16.888688389069824,0.99981689453125L16.888888359069824,0.99981689453125L16.888888359069824,3.44426159453125L16.888688389069824,3.44426159453125Q16.888688329069826,3.54273319453125,16.869477449069823,3.63931249453125Q16.850266579069825,3.73589209453125,16.812583089069825,3.82686809453125Q16.774899599069823,3.91784409453125,16.720191659069823,3.99972029453125Q16.665483709069825,4.08159639453125,16.595853689069823,4.15122649453125Q16.526223659069824,4.22085639453125,16.444347439069823,4.27556419453125Q16.362471219069825,4.330272194531251,16.271495219069823,4.36795589453125Q16.180519249069825,4.40563939453125,16.083939659069824,4.42485049453125Q15.987360068069824,4.4440612945312505,15.888888359069824,4.44406149453125Q15.790416650069824,4.4440612945312505,15.693837059069825,4.42485019453125Q15.597257469069824,4.4056391945312505,15.506281499069825,4.3679556945312505Q15.415305499069824,4.330272194531251,15.333429279069824,4.27556439453125Q15.251553059069824,4.22085669453125,15.181923029069825,4.15122679453125Q15.112293009069823,4.08159659453125,15.057585119069824,3.99972029453125Q15.002877179069824,3.91784429453125,14.965193689069825,3.82686829453125Q14.927510139069824,3.73589229453125,14.908299269069824,3.63931249453125Q14.889088389069824,3.54273319453125,14.889088329069825,3.44426159453125L14.888888359069824,3.44426159453125L14.888888359069824,0.99981689453125L14.889088329069825,0.99981689453125Z" fill-rule="evenodd" fill="#000000" fill-opacity="1"/><path d="M6.111111164093018,12.99981689453125L15.888889764093017,12.99981689453125L15.888889764093017,12.99961692453125Q15.987360464093017,12.99961686453125,16.083940064093017,12.98040598453125Q16.180519164093017,12.96119511453125,16.271495164093018,12.92351162453125Q16.362471164093016,12.88582813453125,16.444348164093018,12.83112019453125Q16.526223164093018,12.776412244531251,16.59585416409302,12.70678222453125Q16.665484164093016,12.63715219453125,16.720191164093016,12.55527597453125Q16.774899164093018,12.47339975453125,16.812582164093016,12.38242375453125Q16.850266164093018,12.29144778453125,16.869478164093017,12.19486819453125Q16.888689164093016,12.09828860353125,16.888689164093016,11.99981689453125Q16.888689164093016,11.90134518553125,16.869478164093017,11.80476559453125Q16.85026716409302,11.70818600453125,16.81258316409302,11.61721003453125Q16.774899164093018,11.52623403453125,16.720191164093016,11.44435781453125Q16.665484164093016,11.36248159453125,16.59585416409302,11.29285156453125Q16.526223164093018,11.223221544531249,16.444348164093018,11.16851365453125Q16.362471164093016,11.11380571453125,16.271495164093018,11.07612222453125Q16.180519164093017,11.03843867453125,16.083940064093017,11.01922780453125Q15.987360464093017,11.00001692453125,15.888889764093017,11.00001686453125L15.888889764093017,10.99981689453125L6.111111164093018,10.99981689453125L6.111111164093018,11.00001686453125Q6.012639455093018,11.00001692453125,5.916059864093017,11.01922780453125Q5.819480274093017,11.03843867453125,5.7285043040930175,11.07612216453125Q5.637528304093018,11.11380565453125,5.555652084093017,11.16851359453125Q5.473775864093017,11.223221544531249,5.4041458340930175,11.29285156453125Q5.334515814093018,11.36248159453125,5.279807924093017,11.44435781453125Q5.225099984093018,11.52623403453125,5.187416494093018,11.61721003453125Q5.149732944093017,11.70818600453125,5.130522074093017,11.80476559453125Q5.111311194093018,11.90134518553125,5.111311134093017,11.99981689453125Q5.111311194093018,12.09828860353125,5.130522074093017,12.19486819453125Q5.149732944093017,12.29144778453125,5.187416434093017,12.38242375453125Q5.225099924093017,12.47339975453125,5.2798078640930175,12.55527597453125Q5.334515814093018,12.63715219453125,5.4041458340930175,12.70678222453125Q5.473775864093017,12.776412244531251,5.555652084093017,12.83112013453125Q5.637528304093018,12.88582807453125,5.7285043040930175,12.92351156453125Q5.819480274093017,12.96119511453125,5.916059864093017,12.98040598453125Q6.012639455093018,12.99961686453125,6.111111164093018,12.99961692453125L6.111111164093018,12.99981689453125Z" fill-rule="evenodd" fill="#000000" fill-opacity="1"/></svg>