<svg xmlns="http://www.w3.org/2000/svg" xmlns:xlink="http://www.w3.org/1999/xlink" fill="none" version="1.1" width="26" height="26" viewBox="0 0 26 26"><g><path d="M13,26Q13.319132,26,13.637879,25.984341Q13.956628,25.968681,14.274223,25.937403Q14.591818,25.90612,14.907496,25.859293Q15.223173,25.812466,15.536173,25.750206Q15.849173,25.687946,16.158741,25.610405Q16.468309,25.532864,16.773701,25.440224Q17.07909,25.347584,17.379566,25.240072Q17.680042,25.132557,17.974882,25.010431Q18.269722,24.888306,18.558214,24.75186Q18.846706,24.615414,19.128157,24.464977Q19.409605,24.314537,19.683334,24.150471Q19.957062,23.986404,20.222412,23.809105Q20.487761,23.631805,20.744091,23.441698Q21.00042,23.251591,21.247112,23.049137Q21.493805,22.84668,21.730265,22.632364Q21.966726,22.418047,22.192387,22.192387Q22.418047,21.966726,22.632364,21.730267Q22.84668,21.493805,23.049137,21.247112Q23.251591,21.00042,23.441696,20.744089Q23.631802,20.487761,23.809103,20.222412Q23.986403,19.957062,24.150471,19.683334Q24.314537,19.409605,24.464975,19.128157Q24.615414,18.846706,24.75186,18.558214Q24.888306,18.269722,25.010431,17.974882Q25.132557,17.680042,25.24007,17.379566Q25.347584,17.07909,25.440224,16.773701Q25.532864,16.468309,25.610405,16.158741Q25.687946,15.849173,25.750206,15.536173Q25.812466,15.223173,25.859293,14.907495Q25.90612,14.591818,25.937403,14.274223Q25.968683,13.956628,25.984341,13.63788Q26,13.319132,26,13Q26,12.680868,25.984341,12.36212Q25.968683,12.043373,25.937403,11.725778Q25.90612,11.408182,25.859293,11.092505Q25.812466,10.776826,25.750206,10.463825Q25.687946,10.150826,25.610405,9.8412571Q25.532864,9.5316887,25.440224,9.2262993Q25.347584,8.9209089,25.240072,8.6204319Q25.132557,8.3199549,25.010431,8.025115Q24.888306,7.7302752,24.75186,7.4417839Q24.615414,7.1532917,24.464977,6.8718424Q24.314537,6.5903931,24.150471,6.3166637Q23.986404,6.0429354,23.809105,5.7775865Q23.631805,5.5122375,23.441698,5.2559085Q23.251591,4.9995794,23.049137,4.7528872Q22.84668,4.5061946,22.632364,4.2697334Q22.418047,4.0332723,22.192387,3.8076117Q21.966726,3.5819511,21.730267,3.3676353Q21.493805,3.1533189,21.247112,2.9508638Q21.00042,2.7484083,20.744089,2.5583017Q20.487761,2.3681951,20.222412,2.1908948Q19.957062,2.0135946,19.683334,1.849528Q19.409605,1.6854613,19.128157,1.5350236Q18.846706,1.3845857,18.558214,1.2481391Q18.269722,1.1116925,17.974882,0.98956597Q17.680042,0.86743945,17.379566,0.75992709Q17.07909,0.65241474,16.773701,0.55977559Q16.468309,0.46713644,16.158741,0.38959366Q15.849173,0.31205091,15.536173,0.24979132Q15.223173,0.18753175,14.907495,0.14070535Q14.591818,0.093878962,14.274223,0.062598549Q13.956628,0.031318136,13.63788,0.015659068Q13.319132,0,13,0Q12.680868,0,12.36212,0.015659068Q12.043373,0.031318136,11.725778,0.062598549Q11.408182,0.093878962,11.092505,0.14070535Q10.776826,0.18753175,10.463825,0.24979132Q10.150826,0.31205091,9.8412571,0.38959366Q9.5316887,0.46713644,9.2262993,0.55977559Q8.9209089,0.65241474,8.6204319,0.75992709Q8.3199549,0.86743945,8.025115,0.98956597Q7.7302752,1.1116925,7.4417839,1.2481391Q7.1532917,1.3845856,6.8718424,1.5350235Q6.5903931,1.6854613,6.3166637,1.8495278Q6.0429354,2.0135946,5.7775865,2.1908948Q5.5122375,2.3681951,5.2559085,2.5583017Q4.9995794,2.7484083,4.7528872,2.9508638Q4.5061946,3.1533189,4.2697334,3.367635Q4.0332723,3.5819511,3.8076117,3.8076117Q3.5819511,4.0332723,3.3676353,4.2697334Q3.1533189,4.5061941,2.9508638,4.7528868Q2.7484083,4.999579,2.5583017,5.255908Q2.3681951,5.5122375,2.1908948,5.777586Q2.0135946,6.0429344,1.849528,6.3166633Q1.6854613,6.5903921,1.5350236,6.8718419Q1.3845857,7.1532907,1.2481391,7.441783Q1.1116925,7.7302747,0.98956597,8.0251141Q0.86743945,8.3199539,0.75992709,8.6204309Q0.65241474,8.920908,0.55977559,9.2262983Q0.46713644,9.5316887,0.38959366,9.8412571Q0.31205091,10.150826,0.24979132,10.463825Q0.18753175,10.776826,0.14070535,11.092505Q0.093878962,11.408182,0.062598549,11.725778Q0.031318136,12.043373,0.015659068,12.36212Q0,12.680868,0,13Q0,13.319132,0.015659068,13.637879Q0.031318136,13.956628,0.062598549,14.274223Q0.093878962,14.591818,0.14070535,14.907496Q0.18753175,15.223173,0.24979132,15.536173Q0.31205091,15.849173,0.38959366,16.158741Q0.46713644,16.468309,0.55977559,16.773701Q0.65241474,17.07909,0.75992709,17.379566Q0.86743945,17.680042,0.98956597,17.974882Q1.1116925,18.269722,1.2481391,18.558214Q1.3845856,18.846706,1.5350235,19.128157Q1.6854613,19.409605,1.8495278,19.683334Q2.0135946,19.957062,2.1908948,20.222412Q2.3681951,20.487761,2.5583017,20.744091Q2.7484083,21.00042,2.9508638,21.247112Q3.1533189,21.493805,3.367635,21.730265Q3.5819511,21.966726,3.8076117,22.192387Q4.0332723,22.418047,4.2697334,22.632364Q4.5061941,22.84668,4.7528868,23.049137Q4.999579,23.251591,5.255908,23.441696Q5.5122375,23.631802,5.777586,23.809103Q6.0429344,23.986403,6.3166633,24.150471Q6.5903921,24.314537,6.8718419,24.464975Q7.1532907,24.615414,7.441783,24.75186Q7.7302747,24.888306,8.0251141,25.010431Q8.3199539,25.132557,8.6204309,25.24007Q8.920908,25.347584,9.2262983,25.440224Q9.5316887,25.532864,9.8412571,25.610405Q10.150826,25.687946,10.463825,25.750206Q10.776826,25.812466,11.092505,25.859293Q11.408182,25.90612,11.725778,25.937403Q12.043373,25.968681,12.36212,25.984341Q12.680868,26,13,26ZM13,5.5001998Q12.901527,5.5001998,12.804948,5.5194106Q12.708368,5.5386219,12.617392,5.5763049Q12.526416,5.6139879,12.44454,5.6686959Q12.362664,5.7234039,12.293035,5.7930341Q12.223404,5.8626642,12.168696,5.94454Q12.113987,6.0264163,12.076303,6.1173925Q12.03862,6.2083683,12.01941,6.3049479Q12.0002,6.4015279,12.0002,6.5L12,6.5L12,12.6Q12,13.179899,12.410051,13.589951Q12.820102,14,13.4,14L18.200001,14L18.200001,13.9998Q18.298473,13.9998,18.39505,13.980589Q18.491631,13.961378,18.582605,13.923694Q18.67358,13.88601,18.755457,13.831303Q18.837334,13.776594,18.906965,13.706964Q18.976593,13.637335,19.031301,13.555458Q19.08601,13.473581,19.123692,13.382606Q19.161377,13.29163,19.180588,13.19505Q19.199799,13.098471,19.1998,13Q19.199799,12.901527,19.180588,12.804948Q19.161377,12.708368,19.123693,12.617392Q19.08601,12.526416,19.031301,12.44454Q18.976593,12.362664,18.906965,12.293035Q18.837334,12.223404,18.755459,12.168696Q18.67358,12.113987,18.582605,12.076303Q18.491631,12.038621,18.395052,12.01941Q18.298473,12.0002,18.200001,12.0002L18.200001,12L14,12L14,6.5L13.9998,6.5Q13.9998,6.4015279,13.980589,6.3049479Q13.961378,6.2083683,13.923694,6.1173921Q13.88601,6.0264158,13.831303,5.94454Q13.776594,5.8626642,13.706964,5.7930341Q13.637335,5.7234039,13.555458,5.6686959Q13.473581,5.6139879,13.382606,5.5763049Q13.29163,5.5386219,13.19505,5.5194106Q13.098471,5.5001998,13,5.5001998Z" fill-rule="evenodd" fill="#000000" fill-opacity="1"/></g></svg>