<svg xmlns="http://www.w3.org/2000/svg" xmlns:xlink="http://www.w3.org/1999/xlink" fill="none" version="1.1" width="24" height="24.99981689453125" viewBox="0 0 24 24.99981689453125"><rect x="1" y="1.99981689453125" width="22" height="22" rx="3" fill-opacity="0" stroke-opacity="1" stroke="#000000" fill="none" stroke-width="2"/><path d="M1.6666622461395264,8.666488379089355L2.6666667461395264,8.666483879089355L21.333334746139528,8.666483879089355L22.333338746139525,8.666488379089355L22.333338746139525,6.666479379089355L21.333334746139528,6.6664838790893555L2.6666667461395264,6.6664838790893555L1.6666622461395264,6.666479379089355L1.6666622461395264,8.666488379089355Z" fill-rule="evenodd" fill="#000000" fill-opacity="1"/><path d="M5.666866954558105,0.99981689453125Q5.666867014558106,0.90134518553125,5.686077894558105,0.80476559453125Q5.705288764558105,0.70818600453125,5.742972254558105,0.61721003453125Q5.780655744558105,0.52623403453125,5.835363684558105,0.44435781453125Q5.8900716345581055,0.36248159453124995,5.959701654558105,0.29285156453125005Q6.029331684558105,0.22322154453124998,6.111207904558105,0.16851365453125Q6.193084124558106,0.11380571453124999,6.284060124558105,0.07612222453124995Q6.375036094558105,0.03843867453125005,6.471615684558105,0.019227804531249948Q6.5681952755581055,0.000016924531250017694,6.6666669845581055,0.000016864531250049275Q6.7651386935581055,0.000016924531250017694,6.861718284558106,0.019227804531249948Q6.958297874558106,0.03843867453125005,7.049273844558106,0.07612216453124998Q7.140249844558105,0.11380565453125002,7.222126064558106,0.16851359453125003Q7.304002284558106,0.22322154453124998,7.3736323145581055,0.29285156453125005Q7.4432623345581055,0.36248159453124995,7.497970224558106,0.44435781453125Q7.552678164558105,0.52623403453125,7.590361654558105,0.61721003453125Q7.628045204558106,0.70818600453125,7.647256074558106,0.80476559453125Q7.666466954558105,0.90134518553125,7.666467014558106,0.99981689453125L7.6666669845581055,0.99981689453125L7.6666669845581055,3.66648339453125L7.666467014558106,3.66648339453125Q7.666466954558105,3.76495499453125,7.647256074558106,3.86153459453125Q7.628045204558106,3.95811419453125,7.590361714558106,4.0490898945312495Q7.552678224558106,4.14006589453125,7.4979702845581055,4.22194219453125Q7.4432623345581055,4.3038181945312495,7.3736323145581055,4.37344839453125Q7.304002284558106,4.44307829453125,7.222126064558106,4.49778609453125Q7.140249844558105,4.55249409453125,7.049273844558106,4.59017779453125Q6.958297874558106,4.62786129453125,6.861718284558106,4.64707209453125Q6.7651386935581055,4.66628309453125,6.6666669845581055,4.66628339453125Q6.5681952755581055,4.66628309453125,6.471615684558105,4.64707209453125Q6.375036094558105,4.62786099453125,6.284060124558105,4.59017749453125Q6.193084124558106,4.55249409453125,6.111207904558105,4.497786294531251Q6.029331684558105,4.44307849453125,5.959701654558105,4.37344859453125Q5.8900716345581055,4.30381869453125,5.835363744558105,4.22194219453125Q5.780655804558106,4.14006619453125,5.742972314558106,4.0490898945312495Q5.705288764558105,3.95811419453125,5.686077894558105,3.86153439453125Q5.666867014558106,3.76495499453125,5.666866954558105,3.66648339453125L5.6666669845581055,3.66648339453125L5.6666669845581055,0.99981689453125L5.666866954558105,0.99981689453125Z" fill-rule="evenodd" fill="#000000" fill-opacity="1"/><path d="M16.33353203176758,0.99981689453125Q16.333532091767577,0.90134518553125,16.35274297176758,0.80476559453125Q16.371953841767578,0.70818600453125,16.409637331767577,0.61721003453125Q16.44732082176758,0.52623403453125,16.50202876176758,0.44435781453125Q16.556736711767577,0.36248159453124995,16.62636673176758,0.29285156453125005Q16.695996761767578,0.22322154453124998,16.77787298176758,0.16851365453125Q16.859749201767578,0.11380571453124999,16.95072520176758,0.07612222453124995Q17.041701171767578,0.03843867453125005,17.13828076176758,0.019227804531249948Q17.23486035276758,0.000016924531250017694,17.333332061767578,0.000016864531250049275Q17.431803770767576,0.000016924531250017694,17.528383361767577,0.019227804531249948Q17.62496295176758,0.03843867453125005,17.715938921767577,0.07612216453124998Q17.80691492176758,0.11380565453125002,17.888791141767577,0.16851359453125003Q17.97066736176758,0.22322154453124998,18.040297391767577,0.29285156453125005Q18.10992741176758,0.36248159453124995,18.16463530176758,0.44435781453125Q18.21934324176758,0.52623403453125,18.257026731767578,0.61721003453125Q18.29471028176758,0.70818600453125,18.313921151767577,0.80476559453125Q18.33313203176758,0.90134518553125,18.333132091767578,0.99981689453125L18.333332061767578,0.99981689453125L18.333332061767578,3.66648339453125L18.333132091767578,3.66648339453125Q18.33313203176758,3.76495499453125,18.313921151767577,3.86153459453125Q18.29471028176758,3.95811419453125,18.25702679176758,4.0490898945312495Q18.219343301767577,4.14006589453125,18.164635361767576,4.22194219453125Q18.10992741176758,4.3038181945312495,18.040297391767577,4.37344839453125Q17.97066736176758,4.44307829453125,17.888791141767577,4.49778609453125Q17.80691492176758,4.55249409453125,17.715938921767577,4.59017779453125Q17.62496295176758,4.62786129453125,17.528383361767577,4.64707209453125Q17.431803770767576,4.66628309453125,17.333332061767578,4.66628339453125Q17.23486035276758,4.66628309453125,17.13828076176758,4.64707209453125Q17.041701171767578,4.62786099453125,16.95072520176758,4.59017749453125Q16.859749201767578,4.55249409453125,16.77787298176758,4.497786294531251Q16.695996761767578,4.44307849453125,16.62636673176758,4.37344859453125Q16.556736711767577,4.30381869453125,16.502028821767578,4.22194219453125Q16.447320881767578,4.14006619453125,16.40963739176758,4.0490898945312495Q16.371953841767578,3.95811419453125,16.35274297176758,3.86153439453125Q16.333532091767577,3.76495499453125,16.33353203176758,3.66648339453125L16.333332061767578,3.66648339453125L16.333332061767578,0.99981689453125L16.33353203176758,0.99981689453125Z" fill-rule="evenodd" fill="#000000" fill-opacity="1"/><path d="M6.6666669845581055,13.99981689453125L17.333334984558107,13.99981689453125L17.333334984558107,13.99961692453125Q17.431805984558103,13.99961686453125,17.528384984558105,13.98040598453125Q17.624964984558105,13.96119511453125,17.715939984558105,13.92351162453125Q17.806915984558106,13.88582813453125,17.888792984558105,13.83112019453125Q17.970669984558107,13.776412244531251,18.040298984558106,13.70678222453125Q18.109928984558106,13.63715219453125,18.164636984558108,13.55527597453125Q18.219343984558105,13.47339975453125,18.257028984558104,13.38242375453125Q18.294711984558106,13.29144778453125,18.313923984558105,13.19486819453125Q18.333134984558107,13.09828860353125,18.333134984558107,12.99981689453125Q18.333134984558107,12.90134518553125,18.313922984558104,12.80476559453125Q18.294711984558106,12.70818600453125,18.257028984558104,12.61721003453125Q18.219343984558105,12.52623403453125,18.164636984558108,12.44435781453125Q18.109928984558106,12.36248159453125,18.040298984558106,12.29285156453125Q17.970669984558107,12.223221544531249,17.888792984558105,12.16851365453125Q17.806915984558106,12.11380571453125,17.715939984558105,12.07612222453125Q17.624964984558105,12.03843867453125,17.528384984558105,12.01922780453125Q17.431805984558103,12.00001692453125,17.333334984558107,12.00001686453125L17.333334984558107,11.99981689453125L6.6666669845581055,11.99981689453125L6.6666669845581055,12.00001686453125Q6.5681952755581055,12.00001692453125,6.471615684558105,12.01922780453125Q6.375036094558105,12.03843867453125,6.284060124558105,12.07612216453125Q6.193084124558106,12.11380565453125,6.111207904558105,12.16851359453125Q6.029331684558105,12.223221544531249,5.959701654558105,12.29285156453125Q5.8900716345581055,12.36248159453125,5.835363744558105,12.44435781453125Q5.780655804558106,12.52623403453125,5.742972314558106,12.61721003453125Q5.705288764558105,12.70818600453125,5.686077894558105,12.80476559453125Q5.666867014558106,12.90134518553125,5.666866954558105,12.99981689453125Q5.666867014558106,13.09828860353125,5.686077894558105,13.19486819453125Q5.705288764558105,13.29144778453125,5.742972254558105,13.38242375453125Q5.780655744558105,13.47339975453125,5.835363684558105,13.55527597453125Q5.8900716345581055,13.63715219453125,5.959701654558105,13.70678222453125Q6.029331684558105,13.776412244531251,6.111207904558105,13.83112013453125Q6.193084124558106,13.88582807453125,6.284060124558105,13.92351156453125Q6.375036094558105,13.96119511453125,6.471615684558105,13.98040598453125Q6.5681952755581055,13.99961686453125,6.6666669845581055,13.99961692453125L6.6666669845581055,13.99981689453125Z" fill-rule="evenodd" fill="#000000" fill-opacity="1"/><rect x="1.8461538553237915" y="1.9228938221931458" width="20.30769157409668" height="5.538461685180664" rx="0" fill="#000000" fill-opacity="1"/></svg>