<svg xmlns="http://www.w3.org/2000/svg" xmlns:xlink="http://www.w3.org/1999/xlink" fill="none" version="1.1" width="24" height="24" viewBox="0 0 24 24"><ellipse cx="12" cy="12" rx="11" ry="11" fill-opacity="0" stroke-opacity="1" stroke="#000000" fill="none" stroke-width="2"/><path d="M11.00019997,6Q11.00020003,5.901528291,11.01941091,5.8049487Q11.03862178,5.70836911,11.07630527,5.61739314Q11.11398876,5.52641714,11.1686967,5.44454092Q11.223404649999999,5.3626647,11.29303467,5.29303467Q11.3626647,5.22340465,11.44454092,5.16869676Q11.52641714,5.11398882,11.61739314,5.07630533Q11.70836911,5.03862178,11.8049487,5.0194109099999995Q11.901528291,5.00020003,12,5.00019997Q12.098471709,5.00020003,12.1950513,5.0194109099999995Q12.29163089,5.03862178,12.38260686,5.07630527Q12.47358286,5.11398876,12.55545908,5.1686967Q12.6373353,5.22340465,12.70696533,5.29303467Q12.776595350000001,5.3626647,12.83130324,5.44454092Q12.88601118,5.52641714,12.92369467,5.61739314Q12.96137822,5.70836911,12.98058909,5.8049487Q12.99979997,5.901528291,12.99980003,6L13,6L13.0000001,11L16.8000002,11L16.8000002,11.0001998Q16.8984718,11.0001998,16.9950514,11.0194106Q17.0916305,11.0386214,17.1826067,11.0763049Q17.2735825,11.1139884,17.3554587,11.1686964Q17.437335,11.2234044,17.5069656,11.2930346Q17.5765953,11.362664200000001,17.6313028,11.444540499999999Q17.6860108,11.5264168,17.7236943,11.617392500000001Q17.7613783,11.7083683,17.7805891,11.8049483Q17.7997999,11.9015284,17.7998004,12Q17.7997999,12.0984716,17.7805891,12.1950507Q17.7613783,12.291630699999999,17.7236948,12.3826065Q17.6860113,12.4735823,17.6313033,12.5554585Q17.5765953,12.6373348,17.5069656,12.706965Q17.437335,12.7765946,17.3554592,12.8313026Q17.2735825,12.886010200000001,17.1826067,12.923694099999999Q17.0916305,12.961378100000001,16.9950509,12.9805889Q16.8984718,12.9997997,16.8000002,12.9998002L16.8000002,13.000000499999999L12.40000021,13.000000499999999Q11.8201012,13.000000499999999,11.41005039,12.5899496Q11,12.179899200000001,11.00000006,11.5999999L11,6L11.00019997,6Z" fill-rule="evenodd" fill="#000000" fill-opacity="1"/></svg>