<svg xmlns="http://www.w3.org/2000/svg" xmlns:xlink="http://www.w3.org/1999/xlink" fill="none" version="1.1" width="160" height="58.4991455078125" viewBox="0 0 160 58.4991455078125"><g><path d="M28,0Q27.312639,0,26.626106,0.033727217Q25.939573,0.067454435,25.255522,0.13482763Q24.571468,0.2022008,23.891546,0.30305764Q23.211624,0.40391448,22.53747,0.53801203Q21.863316,0.67210954,21.196554,0.83912468Q20.529793,1.0061399,19.872028,1.2056704Q19.214264,1.4052008,18.567083,1.6367658Q17.919903,1.868331,17.284863,2.1313727Q16.649822,2.3944144,16.028458,2.6882992Q15.407089,2.9821839,14.800892,3.3062041Q14.194693,3.6302238,13.605122,3.9835982Q13.015553,4.3369722,12.444033,4.7188501Q11.872513,5.1007276,11.320419,5.5101886Q10.768326,5.9196491,10.236988,6.3557072Q9.7056503,6.7917643,9.1963482,7.2533684Q8.687048,7.7149715,8.2010098,8.2010098Q7.7149715,8.687048,7.2533679,9.1963482Q6.7917643,9.7056503,6.3557072,10.236988Q5.9196496,10.768326,5.5101891,11.320419Q5.100728,11.872513,4.7188506,12.444033Q4.3369727,13.015553,3.9835987,13.605123Q3.6302242,14.194692,3.3062043,14.800891Q2.9821842,15.407089,2.6882994,16.028456Q2.3944144,16.649822,2.1313727,17.284863Q1.868331,17.919903,1.636766,18.567083Q1.4052008,19.214264,1.2056704,19.872028Q1.0061399,20.529793,0.83912474,21.196554Q0.67210954,21.863316,0.53801203,22.53747Q0.40391448,23.211624,0.30305767,23.891546Q0.2022008,24.571468,0.13482763,25.25552Q0.067454435,25.939571,0.033727217,26.626106Q0,27.312639,0,28Q2.4942823e-16,28.449482,0.014427148,28.898729Q0.028854296,29.347977,0.057693724,29.79653Q0.086533152,30.245085,0.12975514,30.692482Q0.17297713,31.139881,0.23053715,31.585659Q0.28809714,32.031441,0.35993588,32.47514Q0.43177459,32.918842,0.51781797,33.360008Q0.60386133,33.801178,0.70402074,34.239353Q0.80418015,34.677532,0.91835231,35.11227Q1.0325245,35.547012,1.1605917,35.977859Q1.2886591,36.40871,1.4304895,36.835224Q1.57232,37.261742,1.7277675,37.683487Q1.883215,38.105232,2.0521193,38.521767Q2.2210236,38.938305,2.4032104,39.349205Q2.5853975,39.760105,2.7806795,40.164944Q2.9759617,40.569786,3.1841376,40.968151Q3.3923135,41.366516,3.6131682,41.757996Q3.8340235,42.149475,4.0673304,42.533661Q4.3006368,42.91785,4.5461545,43.294353Q4.7916727,43.67086,5.049149,44.039288Q5.3066254,44.407715,5.5757942,44.767685Q5.8449636,45.127655,6.1255484,45.478802Q6.4061327,45.829948,6.6978431,46.171906Q6.9895539,46.513866,7.2920904,46.846287Q7.5946274,47.178711,7.9076777,47.501247Q8.2207279,47.823788,8.5439701,48.136112Q8.8672123,48.448437,9.2003126,48.750221Q9.5334129,49.05201,9.876029,49.342949Q10.218645,49.633896,10.570421,49.913689Q10.922199,50.193481,11.282775,50.461842Q11.643351,50.730202,12.012354,50.986847Q12.381359,51.243492,12.758411,51.488163Q13.135464,51.732834,13.520174,51.965279L13.960752,57.576069C14.021013,58.34351,14.889453,58.757923,15.523943,58.322014L20.423979,54.955593Q22.273243,55.475334,24.176163,55.737667Q26.079082,56,28,56L132,56Q132.68735,56,133.37389,55.96627Q134.06042,55.932541,134.74449,55.86517Q135.42853,55.797794,136.10844,55.696938Q136.78836,55.596077,137.46252,55.461983Q138.13667,55.327881,138.80344,55.16087Q139.4702,54.993855,140.12798,54.794327Q140.78574,54.594795,141.43292,54.363224Q142.08008,54.13166,142.71512,53.868618Q143.35016,53.605576,143.97154,53.311691Q144.59291,53.017807,145.19911,52.69379Q145.8053,52.36977,146.39488,52.016396Q146.98444,51.663021,147.55597,51.281143Q148.12749,50.899265,148.67958,50.489807Q149.23167,50.080345,149.76302,49.644291Q150.29434,49.208233,150.80363,48.746628Q151.31294,48.285027,151.79898,47.798988Q152.285,47.31295,152.74661,46.80365Q153.20822,46.29435,153.64429,45.763012Q154.08035,45.23167,154.48981,44.679573Q154.89926,44.12748,155.28114,43.555962Q155.66302,42.984444,156.01639,42.394875Q156.36977,41.805305,156.69379,41.199108Q157.01781,40.592911,157.31169,39.971542Q157.60559,39.350174,157.86862,38.715134Q158.13167,38.080093,158.36324,37.432915Q158.5948,36.785736,158.79434,36.127972Q158.99387,35.470207,159.16086,34.803444Q159.32788,34.136681,159.46198,33.462524Q159.59607,32.788372,159.69693,32.108452Q159.79779,31.428532,159.86517,30.74448Q159.93256,30.060429,159.96628,29.373894Q160,28.687361,160,28Q160,27.312639,159.96628,26.626106Q159.93256,25.939573,159.86519,25.255522Q159.79779,24.571468,159.69695,23.891546Q159.59608,23.211624,159.46199,22.53747Q159.32788,21.863316,159.16087,21.196554Q158.99387,20.529793,158.79434,19.872028Q158.5948,19.214264,158.36324,18.567083Q158.13167,17.919903,157.86862,17.284863Q157.60559,16.649822,157.31169,16.028458Q157.01781,15.407089,156.69379,14.800892Q156.36975,14.194693,156.01639,13.605122Q155.66299,13.015553,155.28113,12.444033Q154.89925,11.872513,154.48979,11.320419Q154.08034,10.768326,153.64429,10.236988Q153.20822,9.7056503,152.74661,9.1963482Q152.285,8.687048,151.79898,8.2010098Q151.31294,7.7149715,150.80365,7.2533679Q150.29434,6.7917643,149.763,6.3557072Q149.23166,5.9196496,148.67957,5.5101891Q148.12747,5.100728,147.55595,4.7188506Q146.98444,4.3369727,146.39487,3.9835987Q145.8053,3.6302242,145.19911,3.3062043Q144.59291,2.9821842,143.97153,2.6882994Q143.35016,2.3944144,142.71512,2.1313727Q142.08008,1.868331,141.43291,1.636766Q140.78574,1.4052008,140.12796,1.2056704Q139.47018,1.0061399,138.80344,0.83912474Q138.13666,0.67210954,137.46251,0.53801203Q136.78836,0.40391448,136.10844,0.30305767Q135.42853,0.2022008,134.74448,0.13482763Q134.06042,0.067454435,133.37389,0.033727217Q132.68735,0,132,0L28,0Z" fill-rule="evenodd" fill="#EFF7FF" fill-opacity="1"/><path d="M20.423979,54.955593Q22.273243,55.475334,24.176163,55.737667Q26.079082,56,28,56L132,56Q132.68735,56,133.37389,55.96627Q134.06042,55.932541,134.74449,55.86517Q135.42853,55.797794,136.10844,55.696938Q136.78836,55.596077,137.46252,55.461983Q138.13667,55.327881,138.80344,55.16087Q139.4702,54.993855,140.12798,54.794327Q140.78574,54.594795,141.43292,54.363224Q142.08008,54.13166,142.71512,53.868618Q143.35016,53.605576,143.97154,53.311691Q144.59291,53.017807,145.19911,52.69379Q145.8053,52.36977,146.39488,52.016396Q146.98444,51.663021,147.55597,51.281143Q148.12749,50.899265,148.67958,50.489807Q149.23167,50.080345,149.76302,49.644291Q150.29434,49.208233,150.80363,48.746628Q151.31294,48.285027,151.79898,47.798988Q152.285,47.31295,152.74661,46.80365Q153.20822,46.29435,153.64429,45.763012Q154.08035,45.23167,154.48981,44.679573Q154.89926,44.12748,155.28114,43.555962Q155.66302,42.984444,156.01639,42.394875Q156.36977,41.805305,156.69379,41.199108Q157.01781,40.592911,157.31169,39.971542Q157.60559,39.350174,157.86862,38.715134Q158.13167,38.080093,158.36324,37.432915Q158.5948,36.785736,158.79434,36.127972Q158.99387,35.470207,159.16086,34.803444Q159.32788,34.136681,159.46198,33.462524Q159.59607,32.788372,159.69693,32.108452Q159.79779,31.428532,159.86517,30.74448Q159.93256,30.060429,159.96628,29.373894Q160,28.687361,160,28Q160,27.312639,159.96628,26.626106Q159.93256,25.939573,159.86519,25.255522Q159.79779,24.571468,159.69695,23.891546Q159.59608,23.211624,159.46199,22.53747Q159.32788,21.863316,159.16087,21.196554Q158.99387,20.529793,158.79434,19.872028Q158.5948,19.214264,158.36324,18.567083Q158.13167,17.919903,157.86862,17.284863Q157.60559,16.649822,157.31169,16.028458Q157.01781,15.407089,156.69379,14.800892Q156.36975,14.194693,156.01639,13.605122Q155.66299,13.015553,155.28113,12.444033Q154.89925,11.872513,154.48979,11.320419Q154.08034,10.768326,153.64429,10.236988Q153.20822,9.7056503,152.74661,9.1963482Q152.285,8.687048,151.79898,8.2010098Q151.31294,7.7149715,150.80365,7.2533679Q150.29434,6.7917643,149.763,6.3557072Q149.23166,5.9196496,148.67957,5.5101891Q148.12747,5.100728,147.55595,4.7188506Q146.98444,4.3369727,146.39487,3.9835987Q145.8053,3.6302242,145.19911,3.3062043Q144.59291,2.9821842,143.97153,2.6882994Q143.35016,2.3944144,142.71512,2.1313727Q142.08008,1.868331,141.43291,1.636766Q140.78574,1.4052008,140.12796,1.2056704Q139.47018,1.0061399,138.80344,0.83912474Q138.13666,0.67210954,137.46251,0.53801203Q136.78836,0.40391448,136.10844,0.30305767Q135.42853,0.2022008,134.74448,0.13482763Q134.06042,0.067454435,133.37389,0.033727217Q132.68735,0,132,0L28,0Q27.312639,0,26.626106,0.033727217Q25.939573,0.067454435,25.255522,0.13482763Q24.571468,0.2022008,23.891546,0.30305764Q23.211624,0.40391448,22.53747,0.53801203Q21.863316,0.67210954,21.196554,0.83912468Q20.529793,1.0061399,19.872028,1.2056704Q19.214264,1.4052008,18.567083,1.6367658Q17.919903,1.868331,17.284863,2.1313727Q16.649822,2.3944144,16.028458,2.6882992Q15.407089,2.9821839,14.800892,3.3062041Q14.194693,3.6302238,13.605122,3.9835982Q13.015553,4.3369722,12.444033,4.7188501Q11.872513,5.1007276,11.320419,5.5101886Q10.768326,5.9196491,10.236988,6.3557072Q9.7056503,6.7917643,9.1963482,7.2533684Q8.687048,7.7149715,8.2010098,8.2010098Q7.7149715,8.687048,7.2533679,9.1963482Q6.7917643,9.7056503,6.3557072,10.236988Q5.9196496,10.768326,5.5101891,11.320419Q5.100728,11.872513,4.7188506,12.444033Q4.3369727,13.015553,3.9835987,13.605123Q3.6302242,14.194692,3.3062043,14.800891Q2.9821842,15.407089,2.6882994,16.028456Q2.3944144,16.649822,2.1313727,17.284863Q1.868331,17.919903,1.636766,18.567083Q1.4052008,19.214264,1.2056704,19.872028Q1.0061399,20.529793,0.83912474,21.196554Q0.67210954,21.863316,0.53801203,22.53747Q0.40391448,23.211624,0.30305767,23.891546Q0.2022008,24.571468,0.13482763,25.25552Q0.067454435,25.939571,0.033727217,26.626106Q0,27.312639,0,28Q0,28.449482,0.014427149,28.898729Q0.028854297,29.347977,0.057693727,29.79653Q0.086533159,30.245085,0.12975515,30.692482Q0.17297715,31.139881,0.23053716,31.585659Q0.28809717,32.031441,0.35993588,32.47514Q0.43177462,32.918842,0.51781797,33.360008Q0.60386133,33.801178,0.7040208,34.239353Q0.80418015,34.677532,0.91835237,35.11227Q1.0325246,35.547012,1.1605918,35.977859Q1.2886591,36.40871,1.4304895,36.835224Q1.5723201,37.261742,1.7277677,37.683487Q1.8832152,38.105232,2.0521195,38.521767Q2.2210238,38.938305,2.4032106,39.349205Q2.5853977,39.760105,2.7806797,40.164944Q2.9759619,40.569786,3.1841378,40.968151Q3.3923135,41.366516,3.6131685,41.757996Q3.834024,42.149475,4.0673304,42.533661Q4.3006372,42.91785,4.546155,43.294353Q4.7916727,43.67086,5.0491495,44.039288Q5.3066254,44.407715,5.5757947,44.767685Q5.844964,45.127659,6.1255484,45.478806Q6.4061327,45.829952,6.6978431,46.171913Q6.9895539,46.51387,7.2920904,46.846291Q7.5946274,47.178711,7.9076777,47.501251Q8.2207279,47.823792,8.5439701,48.136116Q8.8672123,48.448441,9.2003126,48.750229Q9.5334129,49.052017,9.876029,49.34296Q10.218645,49.633904,10.570421,49.913696Q10.922199,50.193489,11.282776,50.461853Q11.643352,50.730209,12.012356,50.986851Q12.38136,51.2435,12.758411,51.488167Q13.135464,51.732841,13.520175,51.965282L13.960752,57.576073C14.021014,58.343513,14.889453,58.757927,15.523944,58.322014L20.423979,54.955593ZM9.6152229,9.6152229Q17.230446,2,28,2L132,2Q142.76955,2.0000007,150.38477,9.6152229Q158,17.230457,158,28Q158,38.769543,150.38477,46.384777Q142.76955,54,132,54L28,54Q24.415716,54,20.965122,53.030193L20.063442,52.776772L15.819026,55.692772L15.433627,50.784676L14.554449,50.253475Q8.7101698,46.722359,5.3550849,40.77528Q2,34.828201,2,28Q2.0000007,17.230446,9.6152229,9.6152229Z" fill-rule="evenodd" fill="#72B6FF" fill-opacity="1"/></g></svg>