<svg xmlns="http://www.w3.org/2000/svg" xmlns:xlink="http://www.w3.org/1999/xlink" fill="none" version="1.1" width="20" height="20" viewBox="0 0 20 20"><path d="M5.186443805235596,8.12579318125C4.864146735235596,8.12579318125,4.600449085235596,8.38949108125,4.600449085235596,8.71178818125L4.600449085235596,11.290164981250001C4.600449085235596,11.612461581249999,4.864146735235596,11.87615968125,5.186443805235596,11.87615968125C5.508740965235596,11.87615968125,5.772438485235596,11.612461581249999,5.772438485235596,11.290164981250001L5.772438485235596,8.71178818125C5.772438485235596,8.38949108125,5.508740965235596,8.12579318125,5.186443805235596,8.12579318125ZM7.608555585235596,6.87567138125C7.286258185235596,6.87567138125,7.022560785235596,7.13936898125,7.022560785235596,7.46166638125L7.022560785235596,12.540287481250001C7.022560785235596,12.862584081249999,7.286258185235596,13.12628178125,7.608555585235596,13.12628178125C7.930852385235596,13.12628178125,8.194550085235596,12.862584081249999,8.194550085235596,12.540287481250001L8.194550085235596,7.46166638125C8.194550085235596,7.13936898125,7.930852385235596,6.87567138125,7.608555585235596,6.87567138125ZM10.030667285235594,5.00048828125C9.708370185235596,5.00048828125,9.444672585235596,5.26418587125,9.444672585235596,5.58648294125L9.444672585235596,14.41547008125C9.444672585235596,14.73776628125,9.708370185235596,15.00146528125,10.030667285235594,15.00146528125C10.352963885235596,15.00146528125,10.616661985235595,14.73776628125,10.616661985235595,14.41547008125L10.616661985235595,5.58648294125C10.616661985235595,5.26418587125,10.352963885235596,5.00048828125,10.030667285235594,5.00048828125ZM14.874890085235595,8.12579318125C14.552592785235596,8.12579318125,14.288896085235596,8.38949108125,14.288896085235596,8.71178818125L14.288896085235596,11.290164981250001C14.288896085235596,11.612461581249999,14.552592785235596,11.87615968125,14.874890085235595,11.87615968125C15.197189085235596,11.87615968125,15.460885085235596,11.612461581249999,15.460885085235596,11.290164981250001L15.460885085235596,8.71178818125C15.460885085235596,8.38949108125,15.197189085235596,8.12579318125,14.874890085235595,8.12579318125ZM12.452778785235596,6.87567138125C12.130481285235597,6.87567138125,11.866784085235595,7.13936898125,11.866784085235595,7.46166638125L11.866784085235595,12.540287481250001C11.866784085235595,12.862584081249999,12.130481285235597,13.12628178125,12.452778785235596,13.12628178125C12.775075485235595,13.12628178125,13.038773985235595,12.862584081249999,13.038773985235595,12.540287481250001L13.038773985235595,7.46166638125C13.038773985235595,7.13936898125,12.775075485235595,6.87567138125,12.452778785235596,6.87567138125Z" fill="#999999" fill-opacity="1" style="mix-blend-mode:passthrough"/><path d="M19.216721,6.1080184C18.712765,4.9164958,17.990038,3.848032,17.07198,2.9299736C16.153923,2.0119154,15.083506,1.2911417,13.893935,0.78718626C12.661393,0.26369765,11.350718,0,10.000977,0C8.6512356,0,7.3405609,0.26369765,6.1080184,0.78523296C4.9164958,1.2891884,3.848032,2.0099621,2.9299736,2.9299736C2.0119154,3.848032,1.2911417,4.9184489,0.78718626,6.1080184C0.26369765,7.3405609,0,8.6512356,0,10.000977C0,11.350718,0.26369765,12.661393,0.78523296,13.893935C1.2891884,15.085458,2.0099621,16.153923,2.9299736,17.07198C3.848032,17.990038,4.9184489,18.710814,6.1080184,19.214769C7.3405609,19.736305,8.6512356,20,10.000977,20C11.350718,20,12.661393,19.736305,13.893935,19.214769C15.085458,18.712765,16.153923,17.990038,17.07198,17.07198C17.990038,16.153923,18.710814,15.083506,19.214769,13.893935C19.736305,12.661393,20,11.350718,20,10.000977C20,8.6512356,19.738258,7.3405609,19.216721,6.1080184ZM18.136538,13.43686C17.691181,14.487742,17.054401,15.433148,16.243774,16.243774C15.433148,17.054401,14.487742,17.691181,13.43686,18.136538C12.348862,18.597519,11.192501,18.829966,10.000977,18.829966C8.809454,18.829966,7.653091,18.597519,6.565094,18.136538C5.5142107,17.691181,4.5688052,17.054401,3.7581797,16.243774C2.9475534,15.433148,2.3107724,14.487742,1.8654166,13.43686C1.4044342,12.348862,1.1719894,11.192501,1.1719894,10.000977C1.1719894,8.809454,1.4044342,7.653091,1.8654166,6.565094C2.3107724,5.5142107,2.9475534,4.5688052,3.7581797,3.7581797C4.5688052,2.9475534,5.5142107,2.3107724,6.565094,1.8654166C7.653091,1.4044342,8.809454,1.1719894,10.000977,1.1719894C11.192501,1.1719894,12.348862,1.4044342,13.43686,1.8654166C14.487742,2.3107724,15.433148,2.9475534,16.243774,3.7581797C17.054401,4.5688052,17.691181,5.5142107,18.136538,6.565094C18.597519,7.653091,18.829966,8.809454,18.829966,10.000977C18.829966,11.192501,18.597519,12.348862,18.136538,13.43686Z" fill="#999999" fill-opacity="1" style="mix-blend-mode:passthrough"/></svg>